<mxfile host="Electron" modified="2024-05-23T16:07:02.921Z" agent="Mozilla/5.0 (Windows NT 10.0; Win64; x64) AppleWebKit/537.36 (KHTML, like Gecko) draw.io/23.0.2 Chrome/120.0.6099.109 Electron/28.1.0 Safari/537.36" etag="K6AzIMDuWOIlpNpupDJe" version="23.0.2" type="device" pages="13">
  <diagram id="9Fxw6sm0tvmWndp8JFvR" name="1. BigPicture">
    <mxGraphModel dx="1120" dy="524" grid="1" gridSize="10" guides="1" tooltips="1" connect="1" arrows="1" fold="1" page="1" pageScale="1" pageWidth="827" pageHeight="1169" math="0" shadow="0">
      <root>
        <mxCell id="0" />
        <mxCell id="1" parent="0" />
        <mxCell id="36zABFGoN1_srcyq0dc3-1" value="&lt;font style=&quot;font-size: 38px;&quot;&gt;&lt;b&gt;SpaOnline&lt;/b&gt;&lt;/font&gt;" style="ellipse;whiteSpace=wrap;html=1;fillColor=#dae8fc;strokeColor=#6c8ebf;" parent="1" vertex="1">
          <mxGeometry x="280" y="250" width="280" height="170" as="geometry" />
        </mxCell>
      </root>
    </mxGraphModel>
  </diagram>
  <diagram id="Wb_AFI7lF9kfnUjehEVV" name="2. ModeloContextoDeLimitado">
    <mxGraphModel dx="1120" dy="1693" grid="1" gridSize="10" guides="1" tooltips="1" connect="1" arrows="1" fold="1" page="1" pageScale="1" pageWidth="827" pageHeight="1169" math="0" shadow="0">
      <root>
        <mxCell id="0" />
        <mxCell id="1" parent="0" />
        <mxCell id="c7Z3q9NbjSkPnXzRkZbY-1" value="" style="rounded=1;whiteSpace=wrap;html=1;fillColor=#ffcccc;strokeColor=#36393d;" parent="1" vertex="1">
          <mxGeometry x="280" y="-290" width="1420" height="770" as="geometry" />
        </mxCell>
        <mxCell id="orLGJ9NoI-DqrLUmJreb-1" style="edgeStyle=orthogonalEdgeStyle;rounded=0;orthogonalLoop=1;jettySize=auto;html=1;dashed=1;dashPattern=8 8;" parent="1" source="c7Z3q9NbjSkPnXzRkZbY-5" target="c7Z3q9NbjSkPnXzRkZbY-10" edge="1">
          <mxGeometry relative="1" as="geometry" />
        </mxCell>
        <mxCell id="c7Z3q9NbjSkPnXzRkZbY-5" value="Sucursales" style="ellipse;whiteSpace=wrap;html=1;fillColor=#d5e8d4;strokeColor=#82b366;" parent="1" vertex="1">
          <mxGeometry x="910" y="-210" width="120" height="80" as="geometry" />
        </mxCell>
        <mxCell id="F2hWLdfi7fCVIAB3jrYV-4" style="edgeStyle=orthogonalEdgeStyle;rounded=0;orthogonalLoop=1;jettySize=auto;html=1;dashed=1;dashPattern=8 8;" parent="1" source="c7Z3q9NbjSkPnXzRkZbY-6" target="c7Z3q9NbjSkPnXzRkZbY-8" edge="1">
          <mxGeometry relative="1" as="geometry">
            <Array as="points">
              <mxPoint x="1580" y="-40" />
            </Array>
          </mxGeometry>
        </mxCell>
        <mxCell id="HY0-ETz3WeQeDTt6h7M7-2" style="edgeStyle=orthogonalEdgeStyle;rounded=0;orthogonalLoop=1;jettySize=auto;html=1;dashed=1;dashPattern=12 12;" parent="1" source="c7Z3q9NbjSkPnXzRkZbY-6" target="c7Z3q9NbjSkPnXzRkZbY-9" edge="1">
          <mxGeometry relative="1" as="geometry">
            <Array as="points">
              <mxPoint x="1580" y="340" />
              <mxPoint x="720" y="340" />
            </Array>
          </mxGeometry>
        </mxCell>
        <mxCell id="MEx3AU8CmEQzY2TRK9jC-2" style="edgeStyle=orthogonalEdgeStyle;rounded=0;orthogonalLoop=1;jettySize=auto;html=1;dashed=1;dashPattern=12 12;" parent="1" source="c7Z3q9NbjSkPnXzRkZbY-6" target="MEx3AU8CmEQzY2TRK9jC-1" edge="1">
          <mxGeometry relative="1" as="geometry">
            <Array as="points">
              <mxPoint x="1620" y="410" />
            </Array>
          </mxGeometry>
        </mxCell>
        <mxCell id="c7Z3q9NbjSkPnXzRkZbY-6" value="Facturacion" style="ellipse;whiteSpace=wrap;html=1;fillColor=#bac8d3;strokeColor=#23445d;" parent="1" vertex="1">
          <mxGeometry x="1540" y="40" width="120" height="80" as="geometry" />
        </mxCell>
        <mxCell id="DmLDzK1pJvU3bH8W0USl-7" style="edgeStyle=orthogonalEdgeStyle;rounded=0;orthogonalLoop=1;jettySize=auto;html=1;dashed=1;dashPattern=8 8;entryX=0.5;entryY=0;entryDx=0;entryDy=0;" parent="1" source="c7Z3q9NbjSkPnXzRkZbY-7" target="c7Z3q9NbjSkPnXzRkZbY-9" edge="1">
          <mxGeometry relative="1" as="geometry">
            <Array as="points">
              <mxPoint x="720" y="160" />
            </Array>
            <mxPoint x="720" y="230.00000000000045" as="targetPoint" />
          </mxGeometry>
        </mxCell>
        <mxCell id="c7Z3q9NbjSkPnXzRkZbY-7" value="Servicios" style="ellipse;whiteSpace=wrap;html=1;fillColor=#fad7ac;strokeColor=#b46504;" parent="1" vertex="1">
          <mxGeometry x="910" y="120" width="120" height="80" as="geometry" />
        </mxCell>
        <mxCell id="ThxMBJdfDXcPrUojEY_D-1" style="edgeStyle=orthogonalEdgeStyle;rounded=0;orthogonalLoop=1;jettySize=auto;html=1;dashed=1;dashPattern=12 12;" parent="1" source="c7Z3q9NbjSkPnXzRkZbY-8" target="c7Z3q9NbjSkPnXzRkZbY-7" edge="1">
          <mxGeometry relative="1" as="geometry">
            <mxPoint x="500" y="90" as="targetPoint" />
            <Array as="points">
              <mxPoint x="1370" y="160" />
            </Array>
          </mxGeometry>
        </mxCell>
        <mxCell id="F2hWLdfi7fCVIAB3jrYV-3" style="edgeStyle=orthogonalEdgeStyle;rounded=0;orthogonalLoop=1;jettySize=auto;html=1;dashed=1;dashPattern=12 12;" parent="1" source="c7Z3q9NbjSkPnXzRkZbY-8" target="c7Z3q9NbjSkPnXzRkZbY-5" edge="1">
          <mxGeometry relative="1" as="geometry">
            <Array as="points">
              <mxPoint x="1390" y="-170" />
            </Array>
          </mxGeometry>
        </mxCell>
        <mxCell id="IJTHP9uqCJoWr5YFfF28-2" style="edgeStyle=orthogonalEdgeStyle;rounded=0;orthogonalLoop=1;jettySize=auto;html=1;dashed=1;dashPattern=12 12;" parent="1" source="c7Z3q9NbjSkPnXzRkZbY-8" target="IJTHP9uqCJoWr5YFfF28-1" edge="1">
          <mxGeometry relative="1" as="geometry" />
        </mxCell>
        <mxCell id="c7Z3q9NbjSkPnXzRkZbY-8" value="Reservas" style="ellipse;whiteSpace=wrap;html=1;fillColor=#b0e3e6;strokeColor=#0e8088;" parent="1" vertex="1">
          <mxGeometry x="1330" y="-80" width="120" height="80" as="geometry" />
        </mxCell>
        <mxCell id="T5_D82-RBqnPVUnFKGbY-4" style="edgeStyle=orthogonalEdgeStyle;rounded=0;orthogonalLoop=1;jettySize=auto;html=1;dashed=1;dashPattern=8 8;" parent="1" source="c7Z3q9NbjSkPnXzRkZbY-9" target="IJTHP9uqCJoWr5YFfF28-1" edge="1">
          <mxGeometry relative="1" as="geometry">
            <Array as="points">
              <mxPoint x="710" y="120" />
              <mxPoint x="710" y="120" />
            </Array>
          </mxGeometry>
        </mxCell>
        <mxCell id="c7Z3q9NbjSkPnXzRkZbY-9" value="Notificaciones" style="ellipse;whiteSpace=wrap;html=1;fillColor=#ffff88;strokeColor=#36393d;" parent="1" vertex="1">
          <mxGeometry x="660" y="230" width="120" height="80" as="geometry" />
        </mxCell>
        <mxCell id="tP8pg3dRFAGXr3XoH-e2-3" style="edgeStyle=orthogonalEdgeStyle;rounded=0;orthogonalLoop=1;jettySize=auto;html=1;dashed=1;dashPattern=12 12;" parent="1" source="c7Z3q9NbjSkPnXzRkZbY-10" target="tP8pg3dRFAGXr3XoH-e2-1" edge="1">
          <mxGeometry relative="1" as="geometry">
            <Array as="points">
              <mxPoint x="430" y="-40" />
              <mxPoint x="430" y="-40" />
            </Array>
          </mxGeometry>
        </mxCell>
        <mxCell id="c7Z3q9NbjSkPnXzRkZbY-10" value="Spa" style="ellipse;whiteSpace=wrap;html=1;fillColor=#cdeb8b;strokeColor=#36393d;" parent="1" vertex="1">
          <mxGeometry x="390" y="-210" width="120" height="80" as="geometry" />
        </mxCell>
        <mxCell id="wL2t8RK06Kvf3L4XLKcO-1" value="&lt;span style=&quot;font-size: 30px;&quot;&gt;&lt;b&gt;SpaOnline&lt;/b&gt;&lt;/span&gt;" style="text;html=1;align=center;verticalAlign=middle;resizable=0;points=[];autosize=1;strokeColor=none;fillColor=none;" parent="1" vertex="1">
          <mxGeometry x="885" y="-280" width="170" height="50" as="geometry" />
        </mxCell>
        <mxCell id="kxkzvmVWX88M65pdkXfn-4" value="&amp;lt;&amp;lt;needed of&amp;gt;&amp;gt;" style="text;html=1;align=center;verticalAlign=middle;resizable=0;points=[];autosize=1;strokeColor=none;fillColor=none;" parent="1" vertex="1">
          <mxGeometry x="1120" y="130" width="100" height="30" as="geometry" />
        </mxCell>
        <mxCell id="kxkzvmVWX88M65pdkXfn-7" value="&amp;lt;&amp;lt;needed of&amp;gt;&amp;gt;" style="text;html=1;align=center;verticalAlign=middle;resizable=0;points=[];autosize=1;strokeColor=none;fillColor=none;" parent="1" vertex="1">
          <mxGeometry x="1130" y="-200" width="100" height="30" as="geometry" />
        </mxCell>
        <mxCell id="kxkzvmVWX88M65pdkXfn-8" value="&amp;lt;&amp;lt;needed of&amp;gt;&amp;gt;" style="text;html=1;align=center;verticalAlign=middle;resizable=0;points=[];autosize=1;strokeColor=none;fillColor=none;" parent="1" vertex="1">
          <mxGeometry x="770" y="130" width="100" height="30" as="geometry" />
        </mxCell>
        <mxCell id="T5Mt5_TI5dQY8nNnr_UO-2" value="&amp;lt;&amp;lt;needed of&amp;gt;&amp;gt;" style="text;html=1;align=center;verticalAlign=middle;resizable=0;points=[];autosize=1;strokeColor=none;fillColor=none;" parent="1" vertex="1">
          <mxGeometry x="670" y="-200" width="100" height="30" as="geometry" />
        </mxCell>
        <mxCell id="IJTHP9uqCJoWr5YFfF28-1" value="Clientes" style="ellipse;whiteSpace=wrap;html=1;fillColor=#e1d5e7;strokeColor=#9673a6;" parent="1" vertex="1">
          <mxGeometry x="660" y="-80" width="120" height="80" as="geometry" />
        </mxCell>
        <mxCell id="IJTHP9uqCJoWr5YFfF28-3" value="&amp;lt;&amp;lt;needed of&amp;gt;&amp;gt;" style="text;html=1;align=center;verticalAlign=middle;resizable=0;points=[];autosize=1;strokeColor=none;fillColor=none;" parent="1" vertex="1">
          <mxGeometry x="920" y="-70" width="100" height="30" as="geometry" />
        </mxCell>
        <mxCell id="HqHJAocwwuDLGozyyYJm-1" value="&amp;lt;&amp;lt;needed of&amp;gt;&amp;gt;" style="text;html=1;align=center;verticalAlign=middle;resizable=0;points=[];autosize=1;strokeColor=none;fillColor=none;" parent="1" vertex="1">
          <mxGeometry x="920" y="240" width="100" height="30" as="geometry" />
        </mxCell>
        <mxCell id="HqHJAocwwuDLGozyyYJm-4" value="&amp;lt;&amp;lt;needed of&amp;gt;&amp;gt;" style="text;html=1;align=center;verticalAlign=middle;resizable=0;points=[];autosize=1;strokeColor=none;fillColor=none;" parent="1" vertex="1">
          <mxGeometry x="920" y="310" width="100" height="30" as="geometry" />
        </mxCell>
        <mxCell id="MEx3AU8CmEQzY2TRK9jC-1" value="Pagos" style="ellipse;whiteSpace=wrap;html=1;fillColor=#e6d0de;strokeColor=#996185;gradientColor=#d5739d;" parent="1" vertex="1">
          <mxGeometry x="390" y="370" width="120" height="80" as="geometry" />
        </mxCell>
        <mxCell id="MEx3AU8CmEQzY2TRK9jC-3" value="&amp;lt;&amp;lt;needed of&amp;gt;&amp;gt;" style="text;html=1;align=center;verticalAlign=middle;resizable=0;points=[];autosize=1;strokeColor=none;fillColor=none;" parent="1" vertex="1">
          <mxGeometry x="920" y="380" width="100" height="30" as="geometry" />
        </mxCell>
        <mxCell id="4gMuL4UEP-emhaT4FjDf-2" value="" style="edgeStyle=orthogonalEdgeStyle;rounded=0;orthogonalLoop=1;jettySize=auto;html=1;dashed=1;dashPattern=12 12;" parent="1" source="c7Z3q9NbjSkPnXzRkZbY-8" target="c7Z3q9NbjSkPnXzRkZbY-9" edge="1">
          <mxGeometry relative="1" as="geometry">
            <Array as="points">
              <mxPoint x="1390" y="270" />
            </Array>
            <mxPoint x="1390" as="sourcePoint" />
            <mxPoint x="779.9999351210722" y="269.9411764705883" as="targetPoint" />
          </mxGeometry>
        </mxCell>
        <mxCell id="T5_D82-RBqnPVUnFKGbY-2" value="&amp;lt;&amp;lt;needed of&amp;gt;&amp;gt;" style="text;html=1;align=center;verticalAlign=middle;resizable=0;points=[];autosize=1;strokeColor=none;fillColor=none;rotation=-90;" parent="1" vertex="1">
          <mxGeometry x="650" y="100" width="100" height="30" as="geometry" />
        </mxCell>
        <mxCell id="tP8pg3dRFAGXr3XoH-e2-1" value="InformacionBase" style="ellipse;whiteSpace=wrap;html=1;fillColor=#fff2cc;strokeColor=#d6b656;" parent="1" vertex="1">
          <mxGeometry x="390" y="20" width="120" height="80" as="geometry" />
        </mxCell>
        <mxCell id="tP8pg3dRFAGXr3XoH-e2-2" style="edgeStyle=orthogonalEdgeStyle;rounded=0;orthogonalLoop=1;jettySize=auto;html=1;entryX=0.983;entryY=0.683;entryDx=0;entryDy=0;entryPerimeter=0;dashed=1;dashPattern=12 12;" parent="1" source="IJTHP9uqCJoWr5YFfF28-1" target="tP8pg3dRFAGXr3XoH-e2-1" edge="1">
          <mxGeometry relative="1" as="geometry">
            <Array as="points">
              <mxPoint x="670" y="80" />
              <mxPoint x="508" y="80" />
            </Array>
          </mxGeometry>
        </mxCell>
        <mxCell id="Ek3y3vo8lhiYnnbh0h_G-1" value="&amp;lt;&amp;lt;needed of&amp;gt;&amp;gt;" style="text;html=1;align=center;verticalAlign=middle;resizable=0;points=[];autosize=1;strokeColor=none;fillColor=none;" parent="1" vertex="1">
          <mxGeometry x="530" y="45" width="100" height="30" as="geometry" />
        </mxCell>
        <mxCell id="Ek3y3vo8lhiYnnbh0h_G-2" value="&amp;lt;&amp;lt;needed of&amp;gt;&amp;gt;" style="text;html=1;align=center;verticalAlign=middle;resizable=0;points=[];autosize=1;strokeColor=none;fillColor=none;rotation=-90;" parent="1" vertex="1">
          <mxGeometry x="364" y="-70" width="100" height="30" as="geometry" />
        </mxCell>
      </root>
    </mxGraphModel>
  </diagram>
  <diagram name="3.ModeloDominioCompleto" id="JQ0w6MyNEdvH4JSf4atD">
    <mxGraphModel dx="2534" dy="1693" grid="1" gridSize="10" guides="1" tooltips="1" connect="1" arrows="1" fold="1" page="1" pageScale="1" pageWidth="827" pageHeight="1169" math="0" shadow="0">
      <root>
        <mxCell id="0" />
        <mxCell id="1" parent="0" />
        <mxCell id="vxZPRqd_LFXbFAHDxPbY-21" style="edgeStyle=orthogonalEdgeStyle;rounded=0;orthogonalLoop=1;jettySize=auto;html=1;endArrow=none;endFill=0;fillColor=none;" parent="1" source="vxZPRqd_LFXbFAHDxPbY-5" target="vxZPRqd_LFXbFAHDxPbY-11" edge="1">
          <mxGeometry relative="1" as="geometry">
            <mxPoint x="399" y="270" as="sourcePoint" />
          </mxGeometry>
        </mxCell>
        <mxCell id="vxZPRqd_LFXbFAHDxPbY-26" style="edgeStyle=orthogonalEdgeStyle;rounded=0;orthogonalLoop=1;jettySize=auto;html=1;endArrow=none;endFill=0;fillColor=none;" parent="1" source="vxZPRqd_LFXbFAHDxPbY-37" target="vxZPRqd_LFXbFAHDxPbY-8" edge="1">
          <mxGeometry relative="1" as="geometry" />
        </mxCell>
        <mxCell id="vxZPRqd_LFXbFAHDxPbY-5" value="Servicio" style="rounded=0;whiteSpace=wrap;html=1;fillColor=#fad7ac;strokeColor=#b46504;" parent="1" vertex="1">
          <mxGeometry x="340" y="180" width="120" height="60" as="geometry" />
        </mxCell>
        <mxCell id="vxZPRqd_LFXbFAHDxPbY-43" style="edgeStyle=orthogonalEdgeStyle;rounded=0;orthogonalLoop=1;jettySize=auto;html=1;endArrow=none;endFill=0;fillColor=none;" parent="1" source="vxZPRqd_LFXbFAHDxPbY-8" target="vxZPRqd_LFXbFAHDxPbY-10" edge="1">
          <mxGeometry relative="1" as="geometry" />
        </mxCell>
        <mxCell id="vxZPRqd_LFXbFAHDxPbY-53" style="edgeStyle=orthogonalEdgeStyle;rounded=0;orthogonalLoop=1;jettySize=auto;html=1;endArrow=none;endFill=0;fillColor=none;" parent="1" source="vxZPRqd_LFXbFAHDxPbY-8" target="vxZPRqd_LFXbFAHDxPbY-29" edge="1">
          <mxGeometry relative="1" as="geometry" />
        </mxCell>
        <mxCell id="jpfA1zz-NUjcZK58dEFo-1" style="edgeStyle=orthogonalEdgeStyle;rounded=0;orthogonalLoop=1;jettySize=auto;html=1;entryX=0.5;entryY=0;entryDx=0;entryDy=0;endArrow=none;endFill=0;" parent="1" source="vxZPRqd_LFXbFAHDxPbY-8" target="M6x65hHdNAoo3HZc0NWe-1" edge="1">
          <mxGeometry relative="1" as="geometry">
            <Array as="points">
              <mxPoint x="350" y="-390" />
              <mxPoint x="150" y="-390" />
              <mxPoint x="150" y="-700" />
              <mxPoint x="-490" y="-700" />
            </Array>
          </mxGeometry>
        </mxCell>
        <mxCell id="2LRlASSAc9gOCHHSmNSI-5" style="edgeStyle=orthogonalEdgeStyle;rounded=0;orthogonalLoop=1;jettySize=auto;html=1;endArrow=none;endFill=0;" parent="1" source="vxZPRqd_LFXbFAHDxPbY-8" target="2LRlASSAc9gOCHHSmNSI-1" edge="1">
          <mxGeometry relative="1" as="geometry">
            <Array as="points">
              <mxPoint x="360" y="-230" />
              <mxPoint x="-80" y="-230" />
              <mxPoint x="-80" y="410" />
            </Array>
          </mxGeometry>
        </mxCell>
        <mxCell id="WGbAAoODyf59I7fT8j_e-4" style="edgeStyle=orthogonalEdgeStyle;rounded=0;orthogonalLoop=1;jettySize=auto;html=1;entryX=0;entryY=0.5;entryDx=0;entryDy=0;endArrow=none;endFill=0;" parent="1" source="vxZPRqd_LFXbFAHDxPbY-8" target="WGbAAoODyf59I7fT8j_e-3" edge="1">
          <mxGeometry relative="1" as="geometry">
            <Array as="points">
              <mxPoint x="450" y="-405" />
            </Array>
          </mxGeometry>
        </mxCell>
        <mxCell id="vxZPRqd_LFXbFAHDxPbY-8" value="Reserva" style="rounded=0;whiteSpace=wrap;html=1;fillColor=#b0e3e6;strokeColor=#0e8088;" parent="1" vertex="1">
          <mxGeometry x="340" y="-330" width="120" height="60" as="geometry" />
        </mxCell>
        <mxCell id="vxZPRqd_LFXbFAHDxPbY-76" style="edgeStyle=orthogonalEdgeStyle;rounded=0;orthogonalLoop=1;jettySize=auto;html=1;entryX=0.75;entryY=1;entryDx=0;entryDy=0;endArrow=none;endFill=0;fillColor=none;exitX=0;exitY=0.5;exitDx=0;exitDy=0;" parent="1" source="vxZPRqd_LFXbFAHDxPbY-9" target="vxZPRqd_LFXbFAHDxPbY-8" edge="1">
          <mxGeometry relative="1" as="geometry">
            <Array as="points">
              <mxPoint x="560" y="-10" />
              <mxPoint x="560" y="-220" />
              <mxPoint x="430" y="-220" />
            </Array>
          </mxGeometry>
        </mxCell>
        <mxCell id="vxZPRqd_LFXbFAHDxPbY-81" value="" style="edgeStyle=orthogonalEdgeStyle;rounded=0;orthogonalLoop=1;jettySize=auto;html=1;endArrow=none;endFill=0;fillColor=none;" parent="1" source="vxZPRqd_LFXbFAHDxPbY-9" target="vxZPRqd_LFXbFAHDxPbY-31" edge="1">
          <mxGeometry relative="1" as="geometry">
            <Array as="points">
              <mxPoint x="834" y="10" />
            </Array>
          </mxGeometry>
        </mxCell>
        <mxCell id="0WPdts9R0ZuTigQNk17W-1" style="edgeStyle=orthogonalEdgeStyle;rounded=0;orthogonalLoop=1;jettySize=auto;html=1;endArrow=none;endFill=0;" parent="1" source="vxZPRqd_LFXbFAHDxPbY-9" target="vxZPRqd_LFXbFAHDxPbY-30" edge="1">
          <mxGeometry relative="1" as="geometry">
            <Array as="points">
              <mxPoint x="1370" y="-30" />
              <mxPoint x="1370" y="-740" />
            </Array>
          </mxGeometry>
        </mxCell>
        <mxCell id="vxZPRqd_LFXbFAHDxPbY-9" value="Factura" style="rounded=0;whiteSpace=wrap;html=1;fillColor=#bac8d3;strokeColor=#23445d;" parent="1" vertex="1">
          <mxGeometry x="610" y="-40" width="120" height="60" as="geometry" />
        </mxCell>
        <mxCell id="vxZPRqd_LFXbFAHDxPbY-48" style="edgeStyle=orthogonalEdgeStyle;rounded=0;orthogonalLoop=1;jettySize=auto;html=1;endArrow=none;endFill=0;fillColor=none;" parent="1" source="vxZPRqd_LFXbFAHDxPbY-10" target="vxZPRqd_LFXbFAHDxPbY-30" edge="1">
          <mxGeometry relative="1" as="geometry" />
        </mxCell>
        <mxCell id="Mv0A69BRvPhHszylGnbt-9" style="edgeStyle=orthogonalEdgeStyle;rounded=0;orthogonalLoop=1;jettySize=auto;html=1;endArrow=none;endFill=0;fillColor=none;" parent="1" source="vxZPRqd_LFXbFAHDxPbY-10" target="vxZPRqd_LFXbFAHDxPbY-14" edge="1">
          <mxGeometry relative="1" as="geometry">
            <Array as="points">
              <mxPoint x="10" y="-550" />
            </Array>
          </mxGeometry>
        </mxCell>
        <mxCell id="vxZPRqd_LFXbFAHDxPbY-10" value="Sucursal" style="rounded=0;whiteSpace=wrap;html=1;fillColor=#d5e8d4;strokeColor=#82b366;" parent="1" vertex="1">
          <mxGeometry x="340" y="-580" width="120" height="60" as="geometry" />
        </mxCell>
        <mxCell id="2LRlASSAc9gOCHHSmNSI-6" style="edgeStyle=orthogonalEdgeStyle;rounded=0;orthogonalLoop=1;jettySize=auto;html=1;entryX=0.5;entryY=0;entryDx=0;entryDy=0;endArrow=none;endFill=0;" parent="1" source="vxZPRqd_LFXbFAHDxPbY-11" target="2LRlASSAc9gOCHHSmNSI-1" edge="1">
          <mxGeometry relative="1" as="geometry">
            <Array as="points">
              <mxPoint x="680" y="300" />
              <mxPoint x="484" y="300" />
            </Array>
          </mxGeometry>
        </mxCell>
        <mxCell id="vxZPRqd_LFXbFAHDxPbY-11" value="Oferta" style="rounded=0;whiteSpace=wrap;html=1;fillColor=#fad7ac;strokeColor=#b46504;" parent="1" vertex="1">
          <mxGeometry x="620" y="180" width="120" height="60" as="geometry" />
        </mxCell>
        <mxCell id="M6x65hHdNAoo3HZc0NWe-39" style="edgeStyle=orthogonalEdgeStyle;rounded=0;orthogonalLoop=1;jettySize=auto;html=1;endArrow=none;endFill=0;fillColor=none;" parent="1" source="vxZPRqd_LFXbFAHDxPbY-14" target="M6x65hHdNAoo3HZc0NWe-1" edge="1">
          <mxGeometry relative="1" as="geometry">
            <Array as="points">
              <mxPoint x="-195" y="-650" />
              <mxPoint x="-365" y="-650" />
            </Array>
          </mxGeometry>
        </mxCell>
        <mxCell id="vxZPRqd_LFXbFAHDxPbY-14" value="Institucion" style="rounded=0;whiteSpace=wrap;html=1;fillColor=#cdeb8b;strokeColor=#36393d;" parent="1" vertex="1">
          <mxGeometry x="-255" y="-580" width="120" height="60" as="geometry" />
        </mxCell>
        <mxCell id="vxZPRqd_LFXbFAHDxPbY-22" value="Tiene -&amp;gt;" style="text;html=1;align=center;verticalAlign=middle;resizable=0;points=[];autosize=1;rotation=0;fillColor=none;" parent="1" vertex="1">
          <mxGeometry x="510" y="180" width="70" height="30" as="geometry" />
        </mxCell>
        <mxCell id="vxZPRqd_LFXbFAHDxPbY-23" value="&amp;lt;-Pertenece" style="text;html=1;align=center;verticalAlign=middle;resizable=0;points=[];autosize=1;rotation=0;fillColor=none;" parent="1" vertex="1">
          <mxGeometry x="495" y="210" width="90" height="30" as="geometry" />
        </mxCell>
        <mxCell id="vxZPRqd_LFXbFAHDxPbY-24" value="0..*&lt;br&gt;" style="text;html=1;align=center;verticalAlign=middle;resizable=0;points=[];autosize=1;fillColor=none;" parent="1" vertex="1">
          <mxGeometry x="585" y="177.5" width="40" height="30" as="geometry" />
        </mxCell>
        <mxCell id="vxZPRqd_LFXbFAHDxPbY-25" value="1&lt;br&gt;" style="text;html=1;align=center;verticalAlign=middle;resizable=0;points=[];autosize=1;fillColor=none;" parent="1" vertex="1">
          <mxGeometry x="460" y="210" width="30" height="30" as="geometry" />
        </mxCell>
        <mxCell id="vxZPRqd_LFXbFAHDxPbY-29" value="Consentimiento" style="rounded=0;whiteSpace=wrap;html=1;fillColor=#b0e3e6;strokeColor=#0e8088;" parent="1" vertex="1">
          <mxGeometry x="620" y="-330" width="120" height="60" as="geometry" />
        </mxCell>
        <mxCell id="M6x65hHdNAoo3HZc0NWe-25" style="edgeStyle=orthogonalEdgeStyle;rounded=0;orthogonalLoop=1;jettySize=auto;html=1;endArrow=none;endFill=0;fillColor=none;" parent="1" source="vxZPRqd_LFXbFAHDxPbY-30" target="meX9O8fCRNK86AxRfv8K-14" edge="1">
          <mxGeometry relative="1" as="geometry" />
        </mxCell>
        <mxCell id="vxZPRqd_LFXbFAHDxPbY-30" value="Inventario" style="rounded=0;whiteSpace=wrap;html=1;fillColor=#f8cecc;strokeColor=#b85450;" parent="1" vertex="1">
          <mxGeometry x="340" y="-770" width="120" height="60" as="geometry" />
        </mxCell>
        <mxCell id="vxZPRqd_LFXbFAHDxPbY-31" value="Notificacion" style="rounded=0;whiteSpace=wrap;html=1;fillColor=#ffff88;strokeColor=#36393d;" parent="1" vertex="1">
          <mxGeometry x="774" y="505" width="120" height="60" as="geometry" />
        </mxCell>
        <mxCell id="vxZPRqd_LFXbFAHDxPbY-32" value="&lt;br&gt;&amp;lt;-Tiene" style="text;html=1;align=center;verticalAlign=middle;resizable=0;points=[];autosize=1;rotation=90;fillColor=none;" parent="1" vertex="1">
          <mxGeometry x="355" y="5" width="60" height="40" as="geometry" />
        </mxCell>
        <mxCell id="vxZPRqd_LFXbFAHDxPbY-33" value="0..*" style="text;html=1;align=center;verticalAlign=middle;resizable=0;points=[];autosize=1;fillColor=none;" parent="1" vertex="1">
          <mxGeometry x="360" y="-50" width="40" height="30" as="geometry" />
        </mxCell>
        <mxCell id="vxZPRqd_LFXbFAHDxPbY-34" value="Pertenece -&amp;gt;" style="text;html=1;align=center;verticalAlign=middle;resizable=0;points=[];autosize=1;rotation=90;fillColor=none;" parent="1" vertex="1">
          <mxGeometry x="369" y="20" width="90" height="30" as="geometry" />
        </mxCell>
        <mxCell id="vxZPRqd_LFXbFAHDxPbY-35" value="1" style="text;html=1;align=center;verticalAlign=middle;resizable=0;points=[];autosize=1;fillColor=none;" parent="1" vertex="1">
          <mxGeometry x="404" y="147.5" width="30" height="30" as="geometry" />
        </mxCell>
        <mxCell id="vxZPRqd_LFXbFAHDxPbY-38" value="" style="edgeStyle=orthogonalEdgeStyle;rounded=0;orthogonalLoop=1;jettySize=auto;html=1;endArrow=none;endFill=0;fillColor=none;" parent="1" source="vxZPRqd_LFXbFAHDxPbY-5" target="vxZPRqd_LFXbFAHDxPbY-37" edge="1">
          <mxGeometry relative="1" as="geometry">
            <mxPoint x="400" y="110" as="sourcePoint" />
            <mxPoint x="400" y="-250" as="targetPoint" />
          </mxGeometry>
        </mxCell>
        <mxCell id="vxZPRqd_LFXbFAHDxPbY-37" value="ReservaServicio" style="rounded=0;whiteSpace=wrap;html=1;fillColor=#b0e3e6;strokeColor=#0e8088;" parent="1" vertex="1">
          <mxGeometry x="340" y="-110" width="120" height="60" as="geometry" />
        </mxCell>
        <mxCell id="vxZPRqd_LFXbFAHDxPbY-39" value="&lt;br&gt;&amp;lt;- Hace Referencia" style="text;html=1;align=center;verticalAlign=middle;resizable=0;points=[];autosize=1;rotation=90;fillColor=none;" parent="1" vertex="1">
          <mxGeometry x="320" y="-210" width="130" height="40" as="geometry" />
        </mxCell>
        <mxCell id="vxZPRqd_LFXbFAHDxPbY-40" value="Aparece -&amp;gt;" style="text;html=1;align=center;verticalAlign=middle;resizable=0;points=[];autosize=1;rotation=90;fillColor=none;" parent="1" vertex="1">
          <mxGeometry x="374" y="-205" width="80" height="30" as="geometry" />
        </mxCell>
        <mxCell id="vxZPRqd_LFXbFAHDxPbY-41" value="0..*&lt;br&gt;" style="text;html=1;align=center;verticalAlign=middle;resizable=0;points=[];autosize=1;fillColor=none;" parent="1" vertex="1">
          <mxGeometry x="400" y="-140" width="40" height="30" as="geometry" />
        </mxCell>
        <mxCell id="vxZPRqd_LFXbFAHDxPbY-42" value="1" style="text;html=1;align=center;verticalAlign=middle;resizable=0;points=[];autosize=1;fillColor=none;" parent="1" vertex="1">
          <mxGeometry x="374" y="-270" width="30" height="30" as="geometry" />
        </mxCell>
        <mxCell id="vxZPRqd_LFXbFAHDxPbY-44" value="&lt;br&gt;&amp;lt;- Pertenece&amp;nbsp;" style="text;html=1;align=center;verticalAlign=middle;resizable=0;points=[];autosize=1;rotation=90;fillColor=none;" parent="1" vertex="1">
          <mxGeometry x="339" y="-450" width="100" height="40" as="geometry" />
        </mxCell>
        <mxCell id="vxZPRqd_LFXbFAHDxPbY-45" value="&amp;nbsp;Tiene-&amp;gt;" style="text;html=1;align=center;verticalAlign=middle;resizable=0;points=[];autosize=1;rotation=90;fillColor=none;" parent="1" vertex="1">
          <mxGeometry x="385" y="-450" width="70" height="30" as="geometry" />
        </mxCell>
        <mxCell id="vxZPRqd_LFXbFAHDxPbY-46" value="1" style="text;html=1;align=center;verticalAlign=middle;resizable=0;points=[];autosize=1;fillColor=none;" parent="1" vertex="1">
          <mxGeometry x="370" y="-520" width="30" height="30" as="geometry" />
        </mxCell>
        <mxCell id="vxZPRqd_LFXbFAHDxPbY-47" value="0..*" style="text;html=1;align=center;verticalAlign=middle;resizable=0;points=[];autosize=1;fillColor=none;" parent="1" vertex="1">
          <mxGeometry x="400" y="-360" width="40" height="30" as="geometry" />
        </mxCell>
        <mxCell id="vxZPRqd_LFXbFAHDxPbY-49" value="Pertenece -&amp;gt;" style="text;html=1;align=center;verticalAlign=middle;resizable=0;points=[];autosize=1;rotation=90;fillColor=none;" parent="1" vertex="1">
          <mxGeometry x="369" y="-660" width="90" height="30" as="geometry" />
        </mxCell>
        <mxCell id="vxZPRqd_LFXbFAHDxPbY-50" value="&amp;lt;-Tiene" style="text;html=1;align=center;verticalAlign=middle;resizable=0;points=[];autosize=1;rotation=90;fillColor=none;" parent="1" vertex="1">
          <mxGeometry x="354" y="-660" width="60" height="30" as="geometry" />
        </mxCell>
        <mxCell id="vxZPRqd_LFXbFAHDxPbY-51" value="1" style="text;html=1;align=center;verticalAlign=middle;resizable=0;points=[];autosize=1;fillColor=none;" parent="1" vertex="1">
          <mxGeometry x="400" y="-610" width="30" height="30" as="geometry" />
        </mxCell>
        <mxCell id="vxZPRqd_LFXbFAHDxPbY-52" value="1" style="text;html=1;align=center;verticalAlign=middle;resizable=0;points=[];autosize=1;fillColor=none;" parent="1" vertex="1">
          <mxGeometry x="369" y="-710" width="30" height="30" as="geometry" />
        </mxCell>
        <mxCell id="vxZPRqd_LFXbFAHDxPbY-54" value="&amp;nbsp;Tiene-&amp;gt;" style="text;html=1;align=center;verticalAlign=middle;resizable=0;points=[];autosize=1;fillColor=none;" parent="1" vertex="1">
          <mxGeometry x="500" y="-330" width="70" height="30" as="geometry" />
        </mxCell>
        <mxCell id="vxZPRqd_LFXbFAHDxPbY-55" value="&amp;lt;-Pertenece" style="text;html=1;align=center;verticalAlign=middle;resizable=0;points=[];autosize=1;fillColor=none;" parent="1" vertex="1">
          <mxGeometry x="500" y="-300" width="90" height="30" as="geometry" />
        </mxCell>
        <mxCell id="vxZPRqd_LFXbFAHDxPbY-56" value="1" style="text;html=1;align=center;verticalAlign=middle;resizable=0;points=[];autosize=1;fillColor=none;" parent="1" vertex="1">
          <mxGeometry x="590" y="-330" width="30" height="30" as="geometry" />
        </mxCell>
        <mxCell id="vxZPRqd_LFXbFAHDxPbY-57" value="1" style="text;html=1;align=center;verticalAlign=middle;resizable=0;points=[];autosize=1;fillColor=none;" parent="1" vertex="1">
          <mxGeometry x="460" y="-300" width="30" height="30" as="geometry" />
        </mxCell>
        <mxCell id="vxZPRqd_LFXbFAHDxPbY-77" value="&amp;nbsp;Genera-&amp;gt;" style="text;html=1;align=center;verticalAlign=middle;resizable=0;points=[];autosize=1;fillColor=none;" parent="1" vertex="1">
          <mxGeometry x="460" y="-250" width="80" height="30" as="geometry" />
        </mxCell>
        <mxCell id="vxZPRqd_LFXbFAHDxPbY-78" value="&amp;lt;-Pertenece" style="text;html=1;align=center;verticalAlign=middle;resizable=0;points=[];autosize=1;fillColor=none;" parent="1" vertex="1">
          <mxGeometry x="454" y="-220" width="90" height="30" as="geometry" />
        </mxCell>
        <mxCell id="vxZPRqd_LFXbFAHDxPbY-80" value="1" style="text;html=1;align=center;verticalAlign=middle;resizable=0;points=[];autosize=1;fillColor=none;" parent="1" vertex="1">
          <mxGeometry x="404" y="-267.5" width="30" height="30" as="geometry" />
        </mxCell>
        <mxCell id="vxZPRqd_LFXbFAHDxPbY-82" value="&lt;br&gt;&amp;lt;-Hace Referencia" style="text;html=1;align=center;verticalAlign=middle;resizable=0;points=[];autosize=1;rotation=90;fillColor=none;" parent="1" vertex="1">
          <mxGeometry x="760" y="190" width="120" height="40" as="geometry" />
        </mxCell>
        <mxCell id="vxZPRqd_LFXbFAHDxPbY-83" value="Tiene-&amp;gt;" style="text;html=1;align=center;verticalAlign=middle;resizable=0;points=[];autosize=1;rotation=90;fillColor=none;" parent="1" vertex="1">
          <mxGeometry x="834" y="190" width="60" height="30" as="geometry" />
        </mxCell>
        <mxCell id="vxZPRqd_LFXbFAHDxPbY-84" value="1" style="text;html=1;align=center;verticalAlign=middle;resizable=0;points=[];autosize=1;fillColor=none;" parent="1" vertex="1">
          <mxGeometry x="730" y="5" width="30" height="30" as="geometry" />
        </mxCell>
        <mxCell id="ciNxtBr3QN4UxV6CMPux-2" style="edgeStyle=orthogonalEdgeStyle;rounded=0;orthogonalLoop=1;jettySize=auto;html=1;endArrow=none;endFill=0;fillColor=none;" parent="1" source="ciNxtBr3QN4UxV6CMPux-1" target="vxZPRqd_LFXbFAHDxPbY-5" edge="1">
          <mxGeometry relative="1" as="geometry">
            <Array as="points">
              <mxPoint x="170" y="210" />
              <mxPoint x="170" y="210" />
            </Array>
          </mxGeometry>
        </mxCell>
        <mxCell id="ciNxtBr3QN4UxV6CMPux-1" value="TipoServicio" style="rounded=0;whiteSpace=wrap;html=1;fillColor=#fad7ac;strokeColor=#b46504;" parent="1" vertex="1">
          <mxGeometry y="177.5" width="120" height="60" as="geometry" />
        </mxCell>
        <mxCell id="ciNxtBr3QN4UxV6CMPux-3" value="Pertenece -&amp;gt;" style="text;html=1;align=center;verticalAlign=middle;resizable=0;points=[];autosize=1;fillColor=none;" parent="1" vertex="1">
          <mxGeometry x="165" y="177.5" width="90" height="30" as="geometry" />
        </mxCell>
        <mxCell id="ciNxtBr3QN4UxV6CMPux-4" value="&amp;lt;-Tiene" style="text;html=1;align=center;verticalAlign=middle;resizable=0;points=[];autosize=1;fillColor=none;" parent="1" vertex="1">
          <mxGeometry x="180" y="202.5" width="60" height="30" as="geometry" />
        </mxCell>
        <mxCell id="ciNxtBr3QN4UxV6CMPux-5" value="1..*" style="text;html=1;align=center;verticalAlign=middle;resizable=0;points=[];autosize=1;fillColor=none;" parent="1" vertex="1">
          <mxGeometry x="304" y="180" width="40" height="30" as="geometry" />
        </mxCell>
        <mxCell id="ciNxtBr3QN4UxV6CMPux-7" value="1" style="text;html=1;align=center;verticalAlign=middle;resizable=0;points=[];autosize=1;fillColor=none;" parent="1" vertex="1">
          <mxGeometry x="115" y="207.5" width="30" height="30" as="geometry" />
        </mxCell>
        <mxCell id="meX9O8fCRNK86AxRfv8K-1" value="Producto" style="rounded=0;whiteSpace=wrap;html=1;fillColor=#ffe6cc;strokeColor=#d79b00;" parent="1" vertex="1">
          <mxGeometry x="-180" y="-770" width="120" height="60" as="geometry" />
        </mxCell>
        <mxCell id="zbSYS89SeUr47LBYq0IB-13" style="edgeStyle=orthogonalEdgeStyle;rounded=0;orthogonalLoop=1;jettySize=auto;html=1;endArrow=none;endFill=0;" parent="1" source="meX9O8fCRNK86AxRfv8K-2" target="zbSYS89SeUr47LBYq0IB-12" edge="1">
          <mxGeometry relative="1" as="geometry" />
        </mxCell>
        <mxCell id="zbSYS89SeUr47LBYq0IB-14" style="edgeStyle=orthogonalEdgeStyle;rounded=0;orthogonalLoop=1;jettySize=auto;html=1;entryX=0;entryY=0.5;entryDx=0;entryDy=0;endArrow=none;endFill=0;" parent="1" source="meX9O8fCRNK86AxRfv8K-2" target="meX9O8fCRNK86AxRfv8K-1" edge="1">
          <mxGeometry relative="1" as="geometry" />
        </mxCell>
        <mxCell id="meX9O8fCRNK86AxRfv8K-2" value="ProductoPorFabricante" style="rounded=0;whiteSpace=wrap;html=1;fillColor=#ffe6cc;strokeColor=#d79b00;" parent="1" vertex="1">
          <mxGeometry x="-460" y="-770" width="130" height="60" as="geometry" />
        </mxCell>
        <mxCell id="meX9O8fCRNK86AxRfv8K-13" style="edgeStyle=orthogonalEdgeStyle;rounded=0;orthogonalLoop=1;jettySize=auto;html=1;endArrow=none;endFill=0;fillColor=none;" parent="1" source="meX9O8fCRNK86AxRfv8K-9" target="vxZPRqd_LFXbFAHDxPbY-9" edge="1">
          <mxGeometry relative="1" as="geometry" />
        </mxCell>
        <mxCell id="meX9O8fCRNK86AxRfv8K-9" value="Pago" style="rounded=0;whiteSpace=wrap;html=1;fillColor=#e6d0de;strokeColor=#996185;gradientColor=#d5739d;" parent="1" vertex="1">
          <mxGeometry x="610" y="-200" width="120" height="60" as="geometry" />
        </mxCell>
        <mxCell id="M6x65hHdNAoo3HZc0NWe-26" style="edgeStyle=orthogonalEdgeStyle;rounded=0;orthogonalLoop=1;jettySize=auto;html=1;endArrow=none;endFill=0;fillColor=none;" parent="1" source="meX9O8fCRNK86AxRfv8K-14" target="meX9O8fCRNK86AxRfv8K-1" edge="1">
          <mxGeometry relative="1" as="geometry" />
        </mxCell>
        <mxCell id="meX9O8fCRNK86AxRfv8K-14" value="ProductoInventario" style="rounded=0;whiteSpace=wrap;html=1;fillColor=#f8cecc;strokeColor=#b85450;" parent="1" vertex="1">
          <mxGeometry x="75" y="-770" width="120" height="60" as="geometry" />
        </mxCell>
        <mxCell id="M6x65hHdNAoo3HZc0NWe-1" value="Trabajador" style="rounded=0;whiteSpace=wrap;html=1;fillColor=#cdeb8b;strokeColor=#36393d;" parent="1" vertex="1">
          <mxGeometry x="-550" y="-680" width="120" height="60" as="geometry" />
        </mxCell>
        <mxCell id="M6x65hHdNAoo3HZc0NWe-5" style="edgeStyle=orthogonalEdgeStyle;rounded=0;orthogonalLoop=1;jettySize=auto;html=1;endArrow=none;endFill=0;fillColor=none;entryX=0;entryY=0.5;entryDx=0;entryDy=0;" parent="1" source="M6x65hHdNAoo3HZc0NWe-2" target="vxZPRqd_LFXbFAHDxPbY-8" edge="1">
          <mxGeometry relative="1" as="geometry">
            <mxPoint x="45" y="-299.9999999999998" as="targetPoint" />
          </mxGeometry>
        </mxCell>
        <mxCell id="M6x65hHdNAoo3HZc0NWe-2" value="Cliente" style="rounded=0;whiteSpace=wrap;html=1;fillColor=#e1d5e7;strokeColor=#9673a6;" parent="1" vertex="1">
          <mxGeometry x="-250" y="-330" width="120" height="60" as="geometry" />
        </mxCell>
        <mxCell id="zbSYS89SeUr47LBYq0IB-4" style="edgeStyle=orthogonalEdgeStyle;rounded=0;orthogonalLoop=1;jettySize=auto;html=1;endArrow=none;endFill=0;" parent="1" source="M6x65hHdNAoo3HZc0NWe-3" target="vxZPRqd_LFXbFAHDxPbY-14" edge="1">
          <mxGeometry relative="1" as="geometry" />
        </mxCell>
        <mxCell id="M6x65hHdNAoo3HZc0NWe-3" value="Administrador" style="rounded=0;whiteSpace=wrap;html=1;fillColor=#cdeb8b;strokeColor=#36393d;" parent="1" vertex="1">
          <mxGeometry x="-545" y="-580" width="120" height="60" as="geometry" />
        </mxCell>
        <mxCell id="M6x65hHdNAoo3HZc0NWe-10" value="&amp;nbsp;&amp;lt;-Pertenece" style="text;html=1;align=center;verticalAlign=middle;resizable=0;points=[];autosize=1;fillColor=none;" parent="1" vertex="1">
          <mxGeometry x="35" y="-300" width="90" height="30" as="geometry" />
        </mxCell>
        <mxCell id="M6x65hHdNAoo3HZc0NWe-11" value="Tiene-&amp;gt;" style="text;html=1;align=center;verticalAlign=middle;resizable=0;points=[];autosize=1;fillColor=none;" parent="1" vertex="1">
          <mxGeometry x="60" y="-332" width="60" height="30" as="geometry" />
        </mxCell>
        <mxCell id="M6x65hHdNAoo3HZc0NWe-14" value="0..*" style="text;html=1;align=center;verticalAlign=middle;resizable=0;points=[];autosize=1;fillColor=none;" parent="1" vertex="1">
          <mxGeometry x="300" y="-332" width="40" height="30" as="geometry" />
        </mxCell>
        <mxCell id="M6x65hHdNAoo3HZc0NWe-16" value="1" style="text;html=1;align=center;verticalAlign=middle;resizable=0;points=[];autosize=1;fillColor=none;" parent="1" vertex="1">
          <mxGeometry x="-130" y="-300" width="30" height="30" as="geometry" />
        </mxCell>
        <mxCell id="M6x65hHdNAoo3HZc0NWe-27" value="&amp;nbsp;Pertenece-&amp;gt;" style="text;html=1;align=center;verticalAlign=middle;resizable=0;points=[];autosize=1;fillColor=none;" parent="1" vertex="1">
          <mxGeometry x="220" y="-770" width="90" height="30" as="geometry" />
        </mxCell>
        <mxCell id="M6x65hHdNAoo3HZc0NWe-28" value="&amp;lt;-Tiene" style="text;html=1;align=center;verticalAlign=middle;resizable=0;points=[];autosize=1;fillColor=none;" parent="1" vertex="1">
          <mxGeometry x="235" y="-740" width="60" height="30" as="geometry" />
        </mxCell>
        <mxCell id="M6x65hHdNAoo3HZc0NWe-29" value="1..*" style="text;html=1;align=center;verticalAlign=middle;resizable=0;points=[];autosize=1;fillColor=none;" parent="1" vertex="1">
          <mxGeometry x="190" y="-740" width="40" height="30" as="geometry" />
        </mxCell>
        <mxCell id="M6x65hHdNAoo3HZc0NWe-30" value="1" style="text;html=1;align=center;verticalAlign=middle;resizable=0;points=[];autosize=1;fillColor=none;" parent="1" vertex="1">
          <mxGeometry x="310" y="-770" width="30" height="30" as="geometry" />
        </mxCell>
        <mxCell id="M6x65hHdNAoo3HZc0NWe-31" value="&amp;nbsp;Pertenece-&amp;gt;" style="text;html=1;align=center;verticalAlign=middle;resizable=0;points=[];autosize=1;fillColor=none;" parent="1" vertex="1">
          <mxGeometry x="-40" y="-770" width="90" height="30" as="geometry" />
        </mxCell>
        <mxCell id="M6x65hHdNAoo3HZc0NWe-32" value="&amp;lt;-Tiene" style="text;html=1;align=center;verticalAlign=middle;resizable=0;points=[];autosize=1;fillColor=none;" parent="1" vertex="1">
          <mxGeometry x="-25" y="-740" width="60" height="30" as="geometry" />
        </mxCell>
        <mxCell id="M6x65hHdNAoo3HZc0NWe-33" value="1..*" style="text;html=1;align=center;verticalAlign=middle;resizable=0;points=[];autosize=1;fillColor=none;" parent="1" vertex="1">
          <mxGeometry x="40" y="-770" width="40" height="30" as="geometry" />
        </mxCell>
        <mxCell id="M6x65hHdNAoo3HZc0NWe-34" value="1" style="text;html=1;align=center;verticalAlign=middle;resizable=0;points=[];autosize=1;fillColor=none;" parent="1" vertex="1">
          <mxGeometry x="-60" y="-740" width="30" height="30" as="geometry" />
        </mxCell>
        <mxCell id="M6x65hHdNAoo3HZc0NWe-40" value="1..*" style="text;html=1;align=center;verticalAlign=middle;resizable=0;points=[];autosize=1;fillColor=none;" parent="1" vertex="1">
          <mxGeometry x="-430" y="-650" width="40" height="30" as="geometry" />
        </mxCell>
        <mxCell id="Mv0A69BRvPhHszylGnbt-2" value="Tiene-&amp;gt;" style="text;html=1;align=center;verticalAlign=middle;resizable=0;points=[];autosize=1;fillColor=none;rotation=90;" parent="1" vertex="1">
          <mxGeometry x="650" y="-110" width="60" height="30" as="geometry" />
        </mxCell>
        <mxCell id="Mv0A69BRvPhHszylGnbt-3" value="&amp;lt;-Pertenece" style="text;html=1;align=center;verticalAlign=middle;resizable=0;points=[];autosize=1;fillColor=none;rotation=90;" parent="1" vertex="1">
          <mxGeometry x="615" y="-110" width="90" height="30" as="geometry" />
        </mxCell>
        <mxCell id="Mv0A69BRvPhHszylGnbt-4" value="1" style="text;html=1;align=center;verticalAlign=middle;resizable=0;points=[];autosize=1;fillColor=none;" parent="1" vertex="1">
          <mxGeometry x="665" y="-70" width="30" height="30" as="geometry" />
        </mxCell>
        <mxCell id="Mv0A69BRvPhHszylGnbt-7" value="1" style="text;html=1;align=center;verticalAlign=middle;resizable=0;points=[];autosize=1;fillColor=none;" parent="1" vertex="1">
          <mxGeometry x="635" y="-140" width="30" height="30" as="geometry" />
        </mxCell>
        <mxCell id="Mv0A69BRvPhHszylGnbt-11" value="&lt;br&gt;&amp;lt;-Pertenece" style="text;html=1;align=center;verticalAlign=middle;resizable=0;points=[];autosize=1;rotation=0;fillColor=none;" parent="1" vertex="1">
          <mxGeometry x="-5" y="-562" width="90" height="40" as="geometry" />
        </mxCell>
        <mxCell id="Mv0A69BRvPhHszylGnbt-12" value="Tiene -&amp;gt;" style="text;html=1;align=center;verticalAlign=middle;resizable=0;points=[];autosize=1;rotation=0;fillColor=none;" parent="1" vertex="1">
          <mxGeometry x="10" y="-582" width="70" height="30" as="geometry" />
        </mxCell>
        <mxCell id="Mv0A69BRvPhHszylGnbt-13" value="1..*&lt;br&gt;" style="text;html=1;align=center;verticalAlign=middle;resizable=0;points=[];autosize=1;fillColor=none;" parent="1" vertex="1">
          <mxGeometry x="295" y="-580" width="40" height="30" as="geometry" />
        </mxCell>
        <mxCell id="Mv0A69BRvPhHszylGnbt-14" value="1" style="text;html=1;align=center;verticalAlign=middle;resizable=0;points=[];autosize=1;fillColor=none;" parent="1" vertex="1">
          <mxGeometry x="-130" y="-547" width="30" height="30" as="geometry" />
        </mxCell>
        <mxCell id="zbSYS89SeUr47LBYq0IB-3" value="1" style="text;html=1;align=center;verticalAlign=middle;resizable=0;points=[];autosize=1;fillColor=none;" parent="1" vertex="1">
          <mxGeometry x="-285" y="-582" width="30" height="30" as="geometry" />
        </mxCell>
        <mxCell id="zbSYS89SeUr47LBYq0IB-5" value="&amp;nbsp;Pertenece-&amp;gt;" style="text;html=1;align=center;verticalAlign=middle;resizable=0;points=[];autosize=1;fillColor=none;" parent="1" vertex="1">
          <mxGeometry x="-385" y="-575" width="90" height="30" as="geometry" />
        </mxCell>
        <mxCell id="zbSYS89SeUr47LBYq0IB-6" value="&amp;lt;-Tiene" style="text;html=1;align=center;verticalAlign=middle;resizable=0;points=[];autosize=1;fillColor=none;" parent="1" vertex="1">
          <mxGeometry x="-370" y="-545" width="60" height="30" as="geometry" />
        </mxCell>
        <mxCell id="zbSYS89SeUr47LBYq0IB-7" value="1" style="text;html=1;align=center;verticalAlign=middle;resizable=0;points=[];autosize=1;fillColor=none;" parent="1" vertex="1">
          <mxGeometry x="-420" y="-550" width="30" height="30" as="geometry" />
        </mxCell>
        <mxCell id="zbSYS89SeUr47LBYq0IB-8" value="&amp;nbsp;Pertenece-&amp;gt;" style="text;html=1;align=center;verticalAlign=middle;resizable=0;points=[];autosize=1;fillColor=none;" parent="1" vertex="1">
          <mxGeometry x="-355" y="-680" width="90" height="30" as="geometry" />
        </mxCell>
        <mxCell id="zbSYS89SeUr47LBYq0IB-9" value="&amp;lt;-Tiene" style="text;html=1;align=center;verticalAlign=middle;resizable=0;points=[];autosize=1;fillColor=none;" parent="1" vertex="1">
          <mxGeometry x="-340" y="-650" width="60" height="30" as="geometry" />
        </mxCell>
        <mxCell id="zbSYS89SeUr47LBYq0IB-10" value="1" style="text;html=1;align=center;verticalAlign=middle;resizable=0;points=[];autosize=1;fillColor=none;" parent="1" vertex="1">
          <mxGeometry x="-221" y="-612" width="30" height="30" as="geometry" />
        </mxCell>
        <mxCell id="zbSYS89SeUr47LBYq0IB-12" value="Fabricante" style="rounded=0;whiteSpace=wrap;html=1;fillColor=#dae8fc;strokeColor=#6c8ebf;" parent="1" vertex="1">
          <mxGeometry x="-750" y="-770" width="120" height="60" as="geometry" />
        </mxCell>
        <mxCell id="zbSYS89SeUr47LBYq0IB-15" value="&amp;lt;-Referencia" style="text;html=1;align=center;verticalAlign=middle;resizable=0;points=[];autosize=1;fillColor=none;" parent="1" vertex="1">
          <mxGeometry x="-590" y="-740" width="90" height="30" as="geometry" />
        </mxCell>
        <mxCell id="zbSYS89SeUr47LBYq0IB-16" value="1" style="text;html=1;align=center;verticalAlign=middle;resizable=0;points=[];autosize=1;strokeColor=none;fillColor=none;" parent="1" vertex="1">
          <mxGeometry x="-630" y="-740" width="30" height="30" as="geometry" />
        </mxCell>
        <mxCell id="zbSYS89SeUr47LBYq0IB-17" value="Fabrica-&amp;gt;" style="text;html=1;align=center;verticalAlign=middle;resizable=0;points=[];autosize=1;fillColor=none;" parent="1" vertex="1">
          <mxGeometry x="-580" y="-770" width="70" height="30" as="geometry" />
        </mxCell>
        <mxCell id="zbSYS89SeUr47LBYq0IB-18" value="1..*" style="text;html=1;align=center;verticalAlign=middle;resizable=0;points=[];autosize=1;strokeColor=none;fillColor=none;" parent="1" vertex="1">
          <mxGeometry x="-500" y="-772" width="40" height="30" as="geometry" />
        </mxCell>
        <mxCell id="zbSYS89SeUr47LBYq0IB-19" value="&amp;nbsp;Contiene-&amp;gt;" style="text;html=1;align=center;verticalAlign=middle;resizable=0;points=[];autosize=1;fillColor=none;" parent="1" vertex="1">
          <mxGeometry x="-305" y="-770" width="90" height="30" as="geometry" />
        </mxCell>
        <mxCell id="zbSYS89SeUr47LBYq0IB-20" value="1" style="text;html=1;align=center;verticalAlign=middle;resizable=0;points=[];autosize=1;strokeColor=none;fillColor=none;" parent="1" vertex="1">
          <mxGeometry x="-215" y="-772" width="30" height="30" as="geometry" />
        </mxCell>
        <mxCell id="zbSYS89SeUr47LBYq0IB-22" value="&amp;lt;-Esta" style="text;html=1;align=center;verticalAlign=middle;resizable=0;points=[];autosize=1;fillColor=none;" parent="1" vertex="1">
          <mxGeometry x="-295" y="-740" width="60" height="30" as="geometry" />
        </mxCell>
        <mxCell id="zbSYS89SeUr47LBYq0IB-23" value="1..*" style="text;html=1;align=center;verticalAlign=middle;resizable=0;points=[];autosize=1;strokeColor=none;fillColor=none;" parent="1" vertex="1">
          <mxGeometry x="-330" y="-740" width="40" height="30" as="geometry" />
        </mxCell>
        <mxCell id="q57nYIGdQczy4yy1LqSg-1" value="Fabricantes" style="ellipse;whiteSpace=wrap;html=1;fillColor=#dae8fc;strokeColor=#6c8ebf;" parent="1" vertex="1">
          <mxGeometry x="-930" y="-747.5" width="120" height="80" as="geometry" />
        </mxCell>
        <mxCell id="q57nYIGdQczy4yy1LqSg-2" value="productos" style="ellipse;whiteSpace=wrap;html=1;fillColor=#ffe6cc;strokeColor=#d79b00;" parent="1" vertex="1">
          <mxGeometry x="-930" y="-657.5" width="120" height="80" as="geometry" />
        </mxCell>
        <mxCell id="q57nYIGdQczy4yy1LqSg-3" value="Inventarios" style="ellipse;whiteSpace=wrap;html=1;fillColor=#f8cecc;strokeColor=#b85450;" parent="1" vertex="1">
          <mxGeometry x="-930" y="-557.5" width="120" height="80" as="geometry" />
        </mxCell>
        <mxCell id="q57nYIGdQczy4yy1LqSg-4" value="Sucursales" style="ellipse;whiteSpace=wrap;html=1;fillColor=#d5e8d4;strokeColor=#82b366;" parent="1" vertex="1">
          <mxGeometry x="-930" y="-451.5" width="120" height="80" as="geometry" />
        </mxCell>
        <mxCell id="q57nYIGdQczy4yy1LqSg-5" value="Factura" style="ellipse;whiteSpace=wrap;html=1;fillColor=#bac8d3;strokeColor=#23445d;" parent="1" vertex="1">
          <mxGeometry x="-930" y="-347.5" width="120" height="80" as="geometry" />
        </mxCell>
        <mxCell id="q57nYIGdQczy4yy1LqSg-6" value="Servicios" style="ellipse;whiteSpace=wrap;html=1;fillColor=#fad7ac;strokeColor=#b46504;" parent="1" vertex="1">
          <mxGeometry x="-930" y="-237.5" width="120" height="80" as="geometry" />
        </mxCell>
        <mxCell id="q57nYIGdQczy4yy1LqSg-7" value="Reservas" style="ellipse;whiteSpace=wrap;html=1;fillColor=#b0e3e6;strokeColor=#0e8088;" parent="1" vertex="1">
          <mxGeometry x="-930" y="-127.5" width="120" height="80" as="geometry" />
        </mxCell>
        <mxCell id="q57nYIGdQczy4yy1LqSg-25" value="Notificaciones" style="ellipse;whiteSpace=wrap;html=1;fillColor=#ffff88;strokeColor=#36393d;" parent="1" vertex="1">
          <mxGeometry x="-930" y="-17.5" width="120" height="80" as="geometry" />
        </mxCell>
        <mxCell id="q57nYIGdQczy4yy1LqSg-26" value="SpaOnline" style="ellipse;whiteSpace=wrap;html=1;fillColor=#cdeb8b;strokeColor=#36393d;" parent="1" vertex="1">
          <mxGeometry x="-930" y="97.5" width="120" height="80" as="geometry" />
        </mxCell>
        <mxCell id="CBUNuhqD7LBJVc70sIVh-2" style="edgeStyle=orthogonalEdgeStyle;rounded=0;orthogonalLoop=1;jettySize=auto;html=1;entryX=0.5;entryY=1;entryDx=0;entryDy=0;endArrow=none;endFill=0;" parent="1" source="CBUNuhqD7LBJVc70sIVh-1" target="vxZPRqd_LFXbFAHDxPbY-14" edge="1">
          <mxGeometry relative="1" as="geometry" />
        </mxCell>
        <mxCell id="CBUNuhqD7LBJVc70sIVh-1" value="TipoIdentificacion" style="rounded=0;whiteSpace=wrap;html=1;fillColor=#fff2cc;strokeColor=#d6b656;" parent="1" vertex="1">
          <mxGeometry x="-570" y="-396.5" width="120" height="60" as="geometry" />
        </mxCell>
        <mxCell id="CBUNuhqD7LBJVc70sIVh-3" value="&amp;nbsp;Pertenece-&amp;gt;" style="text;html=1;align=center;verticalAlign=middle;resizable=0;points=[];autosize=1;fillColor=none;" parent="1" vertex="1">
          <mxGeometry x="-375" y="-396.5" width="90" height="30" as="geometry" />
        </mxCell>
        <mxCell id="CBUNuhqD7LBJVc70sIVh-4" value="&amp;lt;-Tiene" style="text;html=1;align=center;verticalAlign=middle;resizable=0;points=[];autosize=1;fillColor=none;" parent="1" vertex="1">
          <mxGeometry x="-370" y="-366.5" width="60" height="30" as="geometry" />
        </mxCell>
        <mxCell id="CBUNuhqD7LBJVc70sIVh-5" value="1" style="text;html=1;align=center;verticalAlign=middle;resizable=0;points=[];autosize=1;strokeColor=none;fillColor=none;" parent="1" vertex="1">
          <mxGeometry x="-450" y="-371.5" width="30" height="30" as="geometry" />
        </mxCell>
        <mxCell id="CBUNuhqD7LBJVc70sIVh-6" value="1..*" style="text;html=1;align=center;verticalAlign=middle;resizable=0;points=[];autosize=1;strokeColor=none;fillColor=none;" parent="1" vertex="1">
          <mxGeometry x="-230" y="-522" width="40" height="30" as="geometry" />
        </mxCell>
        <mxCell id="gY8dRV9f8883jVf8I_WK-2" value="1" style="text;html=1;align=center;verticalAlign=middle;resizable=0;points=[];autosize=1;fillColor=none;" parent="1" vertex="1">
          <mxGeometry x="585" y="-40" width="30" height="30" as="geometry" />
        </mxCell>
        <mxCell id="n2E19KorH1KOUOq9GSBs-1" value="1" style="text;html=1;align=center;verticalAlign=middle;resizable=0;points=[];autosize=1;strokeColor=none;fillColor=none;" parent="1" vertex="1">
          <mxGeometry x="1139" y="-550" width="30" height="30" as="geometry" />
        </mxCell>
        <mxCell id="n2E19KorH1KOUOq9GSBs-2" style="edgeStyle=orthogonalEdgeStyle;rounded=0;orthogonalLoop=1;jettySize=auto;html=1;entryX=0;entryY=0.5;entryDx=0;entryDy=0;endArrow=none;endFill=0;" parent="1" source="n2E19KorH1KOUOq9GSBs-3" target="n2E19KorH1KOUOq9GSBs-4" edge="1">
          <mxGeometry relative="1" as="geometry" />
        </mxCell>
        <mxCell id="n2E19KorH1KOUOq9GSBs-3" value="Departamento" style="rounded=0;whiteSpace=wrap;html=1;fillColor=#d5e8d4;strokeColor=#82b366;" parent="1" vertex="1">
          <mxGeometry x="909" y="-580" width="120" height="60" as="geometry" />
        </mxCell>
        <mxCell id="n2E19KorH1KOUOq9GSBs-4" value="Pais" style="rounded=0;whiteSpace=wrap;html=1;fillColor=#d5e8d4;strokeColor=#82b366;" parent="1" vertex="1">
          <mxGeometry x="1169" y="-580" width="120" height="60" as="geometry" />
        </mxCell>
        <mxCell id="n2E19KorH1KOUOq9GSBs-5" value="&amp;lt;-Tiene" style="text;html=1;align=center;verticalAlign=middle;whiteSpace=wrap;rounded=0;" parent="1" vertex="1">
          <mxGeometry x="824" y="-582" width="60" height="30" as="geometry" />
        </mxCell>
        <mxCell id="n2E19KorH1KOUOq9GSBs-7" value="pertenece-&amp;gt;" style="text;html=1;align=center;verticalAlign=middle;whiteSpace=wrap;rounded=0;" parent="1" vertex="1">
          <mxGeometry x="1059" y="-551" width="70" height="30" as="geometry" />
        </mxCell>
        <mxCell id="n2E19KorH1KOUOq9GSBs-8" value="1..*" style="text;html=1;align=center;verticalAlign=middle;resizable=0;points=[];autosize=1;strokeColor=none;fillColor=none;" parent="1" vertex="1">
          <mxGeometry x="754" y="-575" width="40" height="30" as="geometry" />
        </mxCell>
        <mxCell id="BphTo_nQ8E0qTA6qX45A-3" style="edgeStyle=orthogonalEdgeStyle;rounded=0;orthogonalLoop=1;jettySize=auto;html=1;entryX=1;entryY=0.5;entryDx=0;entryDy=0;endArrow=none;endFill=0;" parent="1" source="BphTo_nQ8E0qTA6qX45A-2" target="vxZPRqd_LFXbFAHDxPbY-10" edge="1">
          <mxGeometry relative="1" as="geometry" />
        </mxCell>
        <mxCell id="BphTo_nQ8E0qTA6qX45A-4" style="edgeStyle=orthogonalEdgeStyle;rounded=0;orthogonalLoop=1;jettySize=auto;html=1;entryX=0;entryY=0.5;entryDx=0;entryDy=0;endArrow=none;endFill=0;" parent="1" source="BphTo_nQ8E0qTA6qX45A-2" target="n2E19KorH1KOUOq9GSBs-3" edge="1">
          <mxGeometry relative="1" as="geometry" />
        </mxCell>
        <mxCell id="BphTo_nQ8E0qTA6qX45A-2" value="Ciudad" style="rounded=0;whiteSpace=wrap;html=1;fillColor=#d5e8d4;strokeColor=#82b366;" parent="1" vertex="1">
          <mxGeometry x="634" y="-580" width="120" height="60" as="geometry" />
        </mxCell>
        <mxCell id="BphTo_nQ8E0qTA6qX45A-5" value="1" style="text;html=1;align=center;verticalAlign=middle;resizable=0;points=[];autosize=1;strokeColor=none;fillColor=none;" parent="1" vertex="1">
          <mxGeometry x="864" y="-549" width="30" height="30" as="geometry" />
        </mxCell>
        <mxCell id="BphTo_nQ8E0qTA6qX45A-6" value="pertenece-&amp;gt;" style="text;html=1;align=center;verticalAlign=middle;whiteSpace=wrap;rounded=0;" parent="1" vertex="1">
          <mxGeometry x="784" y="-550" width="70" height="30" as="geometry" />
        </mxCell>
        <mxCell id="2DF7v4Xp6ZAOAiuMsnGJ-1" value="Esta Ubicada-&amp;gt;" style="text;html=1;align=center;verticalAlign=middle;whiteSpace=wrap;rounded=0;rotation=0;" parent="1" vertex="1">
          <mxGeometry x="500" y="-584" width="90" height="30" as="geometry" />
        </mxCell>
        <mxCell id="RuafxfGeYvlCKsUMSBFW-1" value="&amp;lt;-Tiene" style="text;html=1;align=center;verticalAlign=middle;whiteSpace=wrap;rounded=0;" parent="1" vertex="1">
          <mxGeometry x="510" y="-547" width="60" height="30" as="geometry" />
        </mxCell>
        <mxCell id="RuafxfGeYvlCKsUMSBFW-2" value="1" style="text;html=1;align=center;verticalAlign=middle;resizable=0;points=[];autosize=1;strokeColor=none;fillColor=none;" parent="1" vertex="1">
          <mxGeometry x="604" y="-580" width="30" height="30" as="geometry" />
        </mxCell>
        <mxCell id="RuafxfGeYvlCKsUMSBFW-3" value="0..*" style="text;html=1;align=center;verticalAlign=middle;resizable=0;points=[];autosize=1;strokeColor=none;fillColor=none;" parent="1" vertex="1">
          <mxGeometry x="460" y="-551" width="40" height="30" as="geometry" />
        </mxCell>
        <mxCell id="EPFpQGI42EJjG3ebGb6D-1" style="edgeStyle=orthogonalEdgeStyle;rounded=0;orthogonalLoop=1;jettySize=auto;html=1;entryX=0.425;entryY=1.05;entryDx=0;entryDy=0;entryPerimeter=0;endArrow=none;endFill=0;" parent="1" source="M6x65hHdNAoo3HZc0NWe-2" target="CBUNuhqD7LBJVc70sIVh-1" edge="1">
          <mxGeometry relative="1" as="geometry" />
        </mxCell>
        <mxCell id="bB-6PMfGGIxjysU2gT-V-1" value="InformaciónBase" style="ellipse;whiteSpace=wrap;html=1;fillColor=#fff2cc;strokeColor=#d6b656;" parent="1" vertex="1">
          <mxGeometry x="-930" y="200" width="120" height="80" as="geometry" />
        </mxCell>
        <mxCell id="RFHlVpr1sh-TPm0L__Lq-5" value="1..*" style="text;html=1;align=center;verticalAlign=middle;resizable=0;points=[];autosize=1;strokeColor=none;fillColor=none;" parent="1" vertex="1">
          <mxGeometry x="834" y="475" width="40" height="30" as="geometry" />
        </mxCell>
        <mxCell id="RFHlVpr1sh-TPm0L__Lq-6" value="0..*" style="text;html=1;align=center;verticalAlign=middle;resizable=0;points=[];autosize=1;strokeColor=none;fillColor=none;" parent="1" vertex="1">
          <mxGeometry x="445" y="-362" width="40" height="30" as="geometry" />
        </mxCell>
        <mxCell id="RFHlVpr1sh-TPm0L__Lq-7" value="1" style="text;html=1;align=center;verticalAlign=middle;resizable=0;points=[];autosize=1;strokeColor=none;fillColor=none;" parent="1" vertex="1">
          <mxGeometry x="-545" y="-336.5" width="30" height="30" as="geometry" />
        </mxCell>
        <mxCell id="RFHlVpr1sh-TPm0L__Lq-8" value="&amp;lt;-Tiene" style="text;html=1;align=center;verticalAlign=middle;resizable=0;points=[];autosize=1;fillColor=none;" parent="1" vertex="1">
          <mxGeometry x="-390" y="-290" width="60" height="30" as="geometry" />
        </mxCell>
        <mxCell id="RFHlVpr1sh-TPm0L__Lq-9" value="&amp;nbsp;Pertenece-&amp;gt;" style="text;html=1;align=center;verticalAlign=middle;resizable=0;points=[];autosize=1;fillColor=none;" parent="1" vertex="1">
          <mxGeometry x="-405" y="-330" width="90" height="30" as="geometry" />
        </mxCell>
        <mxCell id="RFHlVpr1sh-TPm0L__Lq-10" value="1..*" style="text;html=1;align=center;verticalAlign=middle;resizable=0;points=[];autosize=1;strokeColor=none;fillColor=none;" parent="1" vertex="1">
          <mxGeometry x="-290" y="-330" width="40" height="30" as="geometry" />
        </mxCell>
        <mxCell id="uYWCtRdLuKMHPpJnuT80-1" value="Pago" style="ellipse;whiteSpace=wrap;html=1;fillColor=#e6d0de;strokeColor=#996185;gradientColor=#d5739d;" parent="1" vertex="1">
          <mxGeometry x="-930" y="300" width="120" height="80" as="geometry" />
        </mxCell>
        <mxCell id="jpfA1zz-NUjcZK58dEFo-3" value="&amp;nbsp;&amp;lt;-Tiene" style="text;html=1;align=center;verticalAlign=middle;resizable=0;points=[];autosize=1;fillColor=none;" parent="1" vertex="1">
          <mxGeometry x="190" y="-392" width="70" height="30" as="geometry" />
        </mxCell>
        <mxCell id="jpfA1zz-NUjcZK58dEFo-4" value="Referencia-&amp;gt;" style="text;html=1;align=center;verticalAlign=middle;resizable=0;points=[];autosize=1;fillColor=none;" parent="1" vertex="1">
          <mxGeometry x="195" y="-420" width="90" height="30" as="geometry" />
        </mxCell>
        <mxCell id="jpfA1zz-NUjcZK58dEFo-5" value="1" style="text;html=1;align=center;verticalAlign=middle;resizable=0;points=[];autosize=1;strokeColor=none;fillColor=none;" parent="1" vertex="1">
          <mxGeometry x="355" y="-362" width="30" height="30" as="geometry" />
        </mxCell>
        <mxCell id="jpfA1zz-NUjcZK58dEFo-6" value="1..*" style="text;html=1;align=center;verticalAlign=middle;resizable=0;points=[];autosize=1;strokeColor=none;fillColor=none;" parent="1" vertex="1">
          <mxGeometry x="-490" y="-700" width="40" height="30" as="geometry" />
        </mxCell>
        <mxCell id="zbjayIi9g6KrD1ezKu03-1" value="CentroEventos" style="ellipse;whiteSpace=wrap;html=1;fillColor=#f5f5f5;strokeColor=#666666;fontColor=#333333;" parent="1" vertex="1">
          <mxGeometry x="-930" y="410" width="120" height="80" as="geometry" />
        </mxCell>
        <mxCell id="2LRlASSAc9gOCHHSmNSI-7" style="edgeStyle=orthogonalEdgeStyle;rounded=0;orthogonalLoop=1;jettySize=auto;html=1;endArrow=none;endFill=0;" parent="1" source="2LRlASSAc9gOCHHSmNSI-1" target="vxZPRqd_LFXbFAHDxPbY-31" edge="1">
          <mxGeometry relative="1" as="geometry">
            <Array as="points">
              <mxPoint x="800" y="410" />
            </Array>
          </mxGeometry>
        </mxCell>
        <mxCell id="2LRlASSAc9gOCHHSmNSI-1" value="Evento" style="rounded=0;whiteSpace=wrap;html=1;fillColor=#f5f5f5;strokeColor=#666666;fontColor=#333333;" parent="1" vertex="1">
          <mxGeometry x="424" y="380" width="120" height="60" as="geometry" />
        </mxCell>
        <mxCell id="2LRlASSAc9gOCHHSmNSI-8" value="&amp;nbsp;Tiene-&amp;gt;" style="text;html=1;align=center;verticalAlign=middle;resizable=0;points=[];autosize=1;fillColor=none;rotation=90;" parent="1" vertex="1">
          <mxGeometry x="-100" y="32.5" width="70" height="30" as="geometry" />
        </mxCell>
        <mxCell id="2LRlASSAc9gOCHHSmNSI-9" value="&amp;lt;-Pertenece" style="text;html=1;align=center;verticalAlign=middle;resizable=0;points=[];autosize=1;fillColor=none;rotation=90;" parent="1" vertex="1">
          <mxGeometry x="-140" y="40" width="90" height="30" as="geometry" />
        </mxCell>
        <mxCell id="2LRlASSAc9gOCHHSmNSI-10" value="1..*" style="text;html=1;align=center;verticalAlign=middle;resizable=0;points=[];autosize=1;strokeColor=none;fillColor=none;" parent="1" vertex="1">
          <mxGeometry x="390" y="378" width="40" height="30" as="geometry" />
        </mxCell>
        <mxCell id="2LRlASSAc9gOCHHSmNSI-11" value="1" style="text;html=1;align=center;verticalAlign=middle;resizable=0;points=[];autosize=1;strokeColor=none;fillColor=none;" parent="1" vertex="1">
          <mxGeometry x="330" y="-270" width="30" height="30" as="geometry" />
        </mxCell>
        <mxCell id="2LRlASSAc9gOCHHSmNSI-12" value="&amp;lt;-Tiene" style="text;html=1;align=center;verticalAlign=middle;resizable=0;points=[];autosize=1;fillColor=none;" parent="1" vertex="1">
          <mxGeometry x="550" y="300" width="60" height="30" as="geometry" />
        </mxCell>
        <mxCell id="2LRlASSAc9gOCHHSmNSI-13" value="Pertenece -&amp;gt;" style="text;html=1;align=center;verticalAlign=middle;resizable=0;points=[];autosize=1;fillColor=none;" parent="1" vertex="1">
          <mxGeometry x="535" y="270" width="90" height="30" as="geometry" />
        </mxCell>
        <mxCell id="2LRlASSAc9gOCHHSmNSI-14" value="1..*" style="text;html=1;align=center;verticalAlign=middle;resizable=0;points=[];autosize=1;strokeColor=none;fillColor=none;" parent="1" vertex="1">
          <mxGeometry x="480" y="348" width="40" height="30" as="geometry" />
        </mxCell>
        <mxCell id="2LRlASSAc9gOCHHSmNSI-15" value="1" style="text;html=1;align=center;verticalAlign=middle;resizable=0;points=[];autosize=1;strokeColor=none;fillColor=none;" parent="1" vertex="1">
          <mxGeometry x="650" y="240" width="30" height="30" as="geometry" />
        </mxCell>
        <mxCell id="2LRlASSAc9gOCHHSmNSI-16" value="Tiene -&amp;gt;" style="text;html=1;align=center;verticalAlign=middle;resizable=0;points=[];autosize=1;rotation=0;fillColor=none;" parent="1" vertex="1">
          <mxGeometry x="630" y="378" width="70" height="30" as="geometry" />
        </mxCell>
        <mxCell id="2LRlASSAc9gOCHHSmNSI-17" value="&amp;lt;-Notifica" style="text;html=1;align=center;verticalAlign=middle;resizable=0;points=[];autosize=1;rotation=0;fillColor=none;" parent="1" vertex="1">
          <mxGeometry x="635" y="410" width="70" height="30" as="geometry" />
        </mxCell>
        <mxCell id="2LRlASSAc9gOCHHSmNSI-18" value="1" style="text;html=1;align=center;verticalAlign=middle;resizable=0;points=[];autosize=1;strokeColor=none;fillColor=none;" parent="1" vertex="1">
          <mxGeometry x="799" y="475" width="30" height="30" as="geometry" />
        </mxCell>
        <mxCell id="2LRlASSAc9gOCHHSmNSI-19" value="1..*" style="text;html=1;align=center;verticalAlign=middle;resizable=0;points=[];autosize=1;strokeColor=none;fillColor=none;" parent="1" vertex="1">
          <mxGeometry x="545" y="410" width="40" height="30" as="geometry" />
        </mxCell>
        <mxCell id="DaT3mB8dWwlCjjYf2xIr-1" style="edgeStyle=orthogonalEdgeStyle;rounded=0;orthogonalLoop=1;jettySize=auto;html=1;endArrow=none;endFill=0;" parent="1" source="WGbAAoODyf59I7fT8j_e-3" target="vxZPRqd_LFXbFAHDxPbY-10" edge="1">
          <mxGeometry relative="1" as="geometry">
            <Array as="points">
              <mxPoint x="680" y="-480" />
              <mxPoint x="440" y="-480" />
            </Array>
          </mxGeometry>
        </mxCell>
        <mxCell id="WGbAAoODyf59I7fT8j_e-3" value="Agenda" style="rounded=0;whiteSpace=wrap;html=1;fillColor=#b0e3e6;strokeColor=#0e8088;" parent="1" vertex="1">
          <mxGeometry x="620" y="-435" width="120" height="60" as="geometry" />
        </mxCell>
        <mxCell id="WGbAAoODyf59I7fT8j_e-6" value="&amp;nbsp;Tiene-&amp;gt;" style="text;html=1;align=center;verticalAlign=middle;resizable=0;points=[];autosize=1;fillColor=none;" parent="1" vertex="1">
          <mxGeometry x="490" y="-435" width="70" height="30" as="geometry" />
        </mxCell>
        <mxCell id="WGbAAoODyf59I7fT8j_e-7" value="&amp;lt;-Referencia" style="text;html=1;align=center;verticalAlign=middle;resizable=0;points=[];autosize=1;fillColor=none;" parent="1" vertex="1">
          <mxGeometry x="480" y="-401.5" width="90" height="30" as="geometry" />
        </mxCell>
        <mxCell id="WGbAAoODyf59I7fT8j_e-8" value="1" style="text;html=1;align=center;verticalAlign=middle;resizable=0;points=[];autosize=1;strokeColor=none;fillColor=none;" parent="1" vertex="1">
          <mxGeometry x="590" y="-435" width="30" height="30" as="geometry" />
        </mxCell>
        <mxCell id="LLYNzONkc-T3ciefQSBz-2" style="edgeStyle=orthogonalEdgeStyle;rounded=0;orthogonalLoop=1;jettySize=auto;html=1;endArrow=none;endFill=0;" parent="1" source="LLYNzONkc-T3ciefQSBz-1" target="meX9O8fCRNK86AxRfv8K-1" edge="1">
          <mxGeometry relative="1" as="geometry" />
        </mxCell>
        <mxCell id="LLYNzONkc-T3ciefQSBz-1" value="Categoria" style="rounded=0;whiteSpace=wrap;html=1;fillColor=#ffe6cc;strokeColor=#d79b00;" parent="1" vertex="1">
          <mxGeometry x="-180" y="-1000" width="120" height="60" as="geometry" />
        </mxCell>
        <mxCell id="LLYNzONkc-T3ciefQSBz-3" value="&lt;br&gt;&amp;lt;- Pertenece&amp;nbsp;" style="text;html=1;align=center;verticalAlign=middle;resizable=0;points=[];autosize=1;rotation=-90;fillColor=none;" parent="1" vertex="1">
          <mxGeometry x="-165" y="-875" width="100" height="40" as="geometry" />
        </mxCell>
        <mxCell id="LLYNzONkc-T3ciefQSBz-4" value="&amp;nbsp;Tiene-&amp;gt;" style="text;html=1;align=center;verticalAlign=middle;resizable=0;points=[];autosize=1;rotation=-90;fillColor=none;" parent="1" vertex="1">
          <mxGeometry x="-170" y="-870" width="70" height="30" as="geometry" />
        </mxCell>
        <mxCell id="LLYNzONkc-T3ciefQSBz-6" value="1" style="text;html=1;align=center;verticalAlign=middle;resizable=0;points=[];autosize=1;strokeColor=none;fillColor=none;" parent="1" vertex="1">
          <mxGeometry x="-150" y="-940" width="30" height="30" as="geometry" />
        </mxCell>
        <mxCell id="LLYNzONkc-T3ciefQSBz-7" value="1" style="text;html=1;align=center;verticalAlign=middle;resizable=0;points=[];autosize=1;strokeColor=none;fillColor=none;" parent="1" vertex="1">
          <mxGeometry x="-120" y="-802" width="30" height="30" as="geometry" />
        </mxCell>
        <mxCell id="0WPdts9R0ZuTigQNk17W-3" value="&amp;lt;-Tiene" style="text;html=1;align=center;verticalAlign=middle;whiteSpace=wrap;rounded=0;" parent="1" vertex="1">
          <mxGeometry x="1069" y="-582" width="60" height="30" as="geometry" />
        </mxCell>
        <mxCell id="0WPdts9R0ZuTigQNk17W-5" value="1..*" style="text;html=1;align=center;verticalAlign=middle;resizable=0;points=[];autosize=1;strokeColor=none;fillColor=none;" parent="1" vertex="1">
          <mxGeometry x="1029" y="-580" width="40" height="30" as="geometry" />
        </mxCell>
        <mxCell id="0WPdts9R0ZuTigQNk17W-6" value="1" style="text;html=1;align=center;verticalAlign=middle;resizable=0;points=[];autosize=1;strokeColor=none;fillColor=none;" parent="1" vertex="1">
          <mxGeometry x="465" y="-740" width="30" height="30" as="geometry" />
        </mxCell>
        <mxCell id="0WPdts9R0ZuTigQNk17W-7" value="Descuenta de -&amp;gt;" style="text;html=1;align=center;verticalAlign=middle;resizable=0;points=[];autosize=1;strokeColor=none;fillColor=none;" parent="1" vertex="1">
          <mxGeometry x="965" y="-60" width="110" height="30" as="geometry" />
        </mxCell>
        <mxCell id="0WPdts9R0ZuTigQNk17W-8" value="&amp;lt;-Referencia" style="text;html=1;align=center;verticalAlign=middle;resizable=0;points=[];autosize=1;strokeColor=none;fillColor=none;" parent="1" vertex="1">
          <mxGeometry x="970" y="-30" width="90" height="30" as="geometry" />
        </mxCell>
        <mxCell id="0WPdts9R0ZuTigQNk17W-9" value="1..*" style="text;html=1;align=center;verticalAlign=middle;resizable=0;points=[];autosize=1;strokeColor=none;fillColor=none;" parent="1" vertex="1">
          <mxGeometry x="730" y="-30" width="40" height="30" as="geometry" />
        </mxCell>
        <mxCell id="DaT3mB8dWwlCjjYf2xIr-3" value="&amp;lt;-Consulta de" style="text;html=1;align=center;verticalAlign=middle;resizable=0;points=[];autosize=1;fillColor=none;" parent="1" vertex="1">
          <mxGeometry x="504" y="-480" width="100" height="30" as="geometry" />
        </mxCell>
        <mxCell id="DaT3mB8dWwlCjjYf2xIr-4" value="1" style="text;html=1;align=center;verticalAlign=middle;resizable=0;points=[];autosize=1;strokeColor=none;fillColor=none;" parent="1" vertex="1">
          <mxGeometry x="410" y="-522" width="30" height="30" as="geometry" />
        </mxCell>
        <mxCell id="DaT3mB8dWwlCjjYf2xIr-6" value="Referencia-&amp;gt;" style="text;html=1;align=center;verticalAlign=middle;resizable=0;points=[];autosize=1;fillColor=none;" parent="1" vertex="1">
          <mxGeometry x="509" y="-510" width="90" height="30" as="geometry" />
        </mxCell>
        <mxCell id="DaT3mB8dWwlCjjYf2xIr-7" value="1" style="text;html=1;align=center;verticalAlign=middle;resizable=0;points=[];autosize=1;strokeColor=none;fillColor=none;" parent="1" vertex="1">
          <mxGeometry x="680" y="-465" width="30" height="30" as="geometry" />
        </mxCell>
      </root>
    </mxGraphModel>
  </diagram>
  <diagram id="ZMk62kbppqcAVSL3VrEE" name="4.6 Spa-ModeloDominioAcotado">
    <mxGraphModel dx="1893" dy="446" grid="0" gridSize="10" guides="1" tooltips="1" connect="1" arrows="1" fold="1" page="1" pageScale="1" pageWidth="827" pageHeight="1169" math="0" shadow="0">
      <root>
        <mxCell id="0" />
        <mxCell id="1" parent="0" />
        <mxCell id="w4WDk-Fy7fQDCeRoZysH-2" style="edgeStyle=orthogonalEdgeStyle;rounded=0;orthogonalLoop=1;jettySize=auto;html=1;entryX=1;entryY=0.5;entryDx=0;entryDy=0;dashed=1;dashPattern=12 12;" edge="1" parent="1" source="EKfO3EmiJxh171wfVgUK-14" target="w4WDk-Fy7fQDCeRoZysH-1">
          <mxGeometry relative="1" as="geometry" />
        </mxCell>
        <mxCell id="EKfO3EmiJxh171wfVgUK-14" value="" style="rounded=1;whiteSpace=wrap;html=1;" parent="1" vertex="1">
          <mxGeometry x="282" y="43" width="487" height="320" as="geometry" />
        </mxCell>
        <mxCell id="EKfO3EmiJxh171wfVgUK-1" style="edgeStyle=orthogonalEdgeStyle;rounded=0;orthogonalLoop=1;jettySize=auto;html=1;endArrow=none;endFill=0;fillColor=none;" parent="1" source="EKfO3EmiJxh171wfVgUK-2" target="EKfO3EmiJxh171wfVgUK-3" edge="1">
          <mxGeometry relative="1" as="geometry">
            <Array as="points">
              <mxPoint x="679.5" y="133" />
              <mxPoint x="509.5" y="133" />
            </Array>
          </mxGeometry>
        </mxCell>
        <mxCell id="EKfO3EmiJxh171wfVgUK-2" value="Spa" style="rounded=0;whiteSpace=wrap;html=1;fillColor=#cdeb8b;strokeColor=#36393d;" parent="1" vertex="1">
          <mxGeometry x="619.5" y="203" width="120" height="60" as="geometry" />
        </mxCell>
        <mxCell id="EKfO3EmiJxh171wfVgUK-3" value="Trabajador" style="rounded=0;whiteSpace=wrap;html=1;fillColor=#cdeb8b;strokeColor=#36393d;" parent="1" vertex="1">
          <mxGeometry x="324.5" y="103" width="120" height="60" as="geometry" />
        </mxCell>
        <mxCell id="EKfO3EmiJxh171wfVgUK-4" style="edgeStyle=orthogonalEdgeStyle;rounded=0;orthogonalLoop=1;jettySize=auto;html=1;endArrow=none;endFill=0;" parent="1" source="EKfO3EmiJxh171wfVgUK-5" target="EKfO3EmiJxh171wfVgUK-2" edge="1">
          <mxGeometry relative="1" as="geometry" />
        </mxCell>
        <mxCell id="EKfO3EmiJxh171wfVgUK-5" value="Administrador" style="rounded=0;whiteSpace=wrap;html=1;fillColor=#cdeb8b;strokeColor=#36393d;" parent="1" vertex="1">
          <mxGeometry x="329.5" y="203" width="120" height="60" as="geometry" />
        </mxCell>
        <mxCell id="EKfO3EmiJxh171wfVgUK-6" value="1..*" style="text;html=1;align=center;verticalAlign=middle;resizable=0;points=[];autosize=1;fillColor=none;" parent="1" vertex="1">
          <mxGeometry x="446.5" y="135" width="36" height="26" as="geometry" />
        </mxCell>
        <mxCell id="EKfO3EmiJxh171wfVgUK-7" value="1" style="text;html=1;align=center;verticalAlign=middle;resizable=0;points=[];autosize=1;fillColor=none;" parent="1" vertex="1">
          <mxGeometry x="589.5" y="201" width="30" height="30" as="geometry" />
        </mxCell>
        <mxCell id="EKfO3EmiJxh171wfVgUK-8" value="&amp;nbsp;Pertenece-&amp;gt;" style="text;html=1;align=center;verticalAlign=middle;resizable=0;points=[];autosize=1;fillColor=none;" parent="1" vertex="1">
          <mxGeometry x="489.5" y="208" width="90" height="30" as="geometry" />
        </mxCell>
        <mxCell id="EKfO3EmiJxh171wfVgUK-9" value="&amp;lt;-Tiene" style="text;html=1;align=center;verticalAlign=middle;resizable=0;points=[];autosize=1;fillColor=none;" parent="1" vertex="1">
          <mxGeometry x="504.5" y="238" width="60" height="30" as="geometry" />
        </mxCell>
        <mxCell id="EKfO3EmiJxh171wfVgUK-10" value="1..*" style="text;html=1;align=center;verticalAlign=middle;resizable=0;points=[];autosize=1;fillColor=none;" parent="1" vertex="1">
          <mxGeometry x="452.5" y="235" width="36" height="26" as="geometry" />
        </mxCell>
        <mxCell id="EKfO3EmiJxh171wfVgUK-11" value="&amp;nbsp;Pertenece-&amp;gt;" style="text;html=1;align=center;verticalAlign=middle;resizable=0;points=[];autosize=1;fillColor=none;" parent="1" vertex="1">
          <mxGeometry x="519.5" y="103" width="90" height="30" as="geometry" />
        </mxCell>
        <mxCell id="EKfO3EmiJxh171wfVgUK-12" value="&amp;lt;-Tiene" style="text;html=1;align=center;verticalAlign=middle;resizable=0;points=[];autosize=1;fillColor=none;" parent="1" vertex="1">
          <mxGeometry x="534.5" y="133" width="60" height="30" as="geometry" />
        </mxCell>
        <mxCell id="EKfO3EmiJxh171wfVgUK-13" value="1" style="text;html=1;align=center;verticalAlign=middle;resizable=0;points=[];autosize=1;fillColor=none;" parent="1" vertex="1">
          <mxGeometry x="679" y="171" width="30" height="30" as="geometry" />
        </mxCell>
        <mxCell id="QSu8qHhri6n5G5RKhTC3-1" value="&lt;span style=&quot;font-size: 20px;&quot;&gt;&lt;b&gt;Spa&lt;/b&gt;&lt;/span&gt;" style="text;html=1;align=center;verticalAlign=middle;resizable=0;points=[];autosize=1;strokeColor=none;fillColor=none;" parent="1" vertex="1">
          <mxGeometry x="523.5" y="45" width="55" height="36" as="geometry" />
        </mxCell>
        <mxCell id="DOZP8DxRMYjCsTviZSF3-12" value="1" style="text;html=1;align=center;verticalAlign=middle;resizable=0;points=[];autosize=1;strokeColor=none;fillColor=none;" parent="1" vertex="1">
          <mxGeometry x="654" y="263" width="25" height="26" as="geometry" />
        </mxCell>
        <mxCell id="I2k7RHdB4wpAs5BY5mfb-3" style="edgeStyle=orthogonalEdgeStyle;rounded=0;orthogonalLoop=1;jettySize=auto;html=1;endArrow=none;endFill=0;" edge="1" parent="1" source="I2k7RHdB4wpAs5BY5mfb-1" target="EKfO3EmiJxh171wfVgUK-2">
          <mxGeometry relative="1" as="geometry" />
        </mxCell>
        <mxCell id="I2k7RHdB4wpAs5BY5mfb-1" value="TipoIdentificacion" style="rounded=0;whiteSpace=wrap;html=1;fillColor=#fff2cc;strokeColor=#d6b656;" vertex="1" parent="1">
          <mxGeometry x="329.5" y="289" width="120" height="60" as="geometry" />
        </mxCell>
        <mxCell id="w4WDk-Fy7fQDCeRoZysH-1" value="InformacionBase" style="ellipse;whiteSpace=wrap;html=1;fillColor=#fff2cc;strokeColor=#d6b656;" vertex="1" parent="1">
          <mxGeometry x="-67" y="163" width="120" height="80" as="geometry" />
        </mxCell>
        <mxCell id="sjKt5pgdnIZGC-Kg13RM-1" value="&amp;lt;&amp;lt;needed of&amp;gt;&amp;gt;" style="text;html=1;align=center;verticalAlign=middle;resizable=0;points=[];autosize=1;strokeColor=none;fillColor=none;" vertex="1" parent="1">
          <mxGeometry x="118" y="163" width="100" height="30" as="geometry" />
        </mxCell>
        <mxCell id="sjKt5pgdnIZGC-Kg13RM-2" value="1" style="text;html=1;align=center;verticalAlign=middle;resizable=0;points=[];autosize=1;strokeColor=none;fillColor=none;" vertex="1" parent="1">
          <mxGeometry x="452" y="323" width="25" height="26" as="geometry" />
        </mxCell>
        <mxCell id="sjKt5pgdnIZGC-Kg13RM-6" value="&amp;nbsp;Pertenece-&amp;gt;" style="text;html=1;align=center;verticalAlign=middle;resizable=0;points=[];autosize=1;fillColor=none;" vertex="1" parent="1">
          <mxGeometry x="513" y="294" width="90" height="30" as="geometry" />
        </mxCell>
        <mxCell id="sjKt5pgdnIZGC-Kg13RM-7" value="&amp;lt;-Tiene" style="text;html=1;align=center;verticalAlign=middle;resizable=0;points=[];autosize=1;fillColor=none;" vertex="1" parent="1">
          <mxGeometry x="528" y="324" width="60" height="30" as="geometry" />
        </mxCell>
      </root>
    </mxGraphModel>
  </diagram>
  <diagram id="iNsx3eu15aOxefqfQBNN" name="4.4 Sucursales-ModeloDominioAcotado">
    <mxGraphModel dx="1120" dy="524" grid="0" gridSize="10" guides="1" tooltips="1" connect="1" arrows="1" fold="1" page="0" pageScale="1" pageWidth="827" pageHeight="1169" math="0" shadow="0">
      <root>
        <mxCell id="0" />
        <mxCell id="1" parent="0" />
        <mxCell id="Be06fhIkuYDgxE-2cJOY-1" style="edgeStyle=orthogonalEdgeStyle;rounded=0;orthogonalLoop=1;jettySize=auto;html=1;dashed=1;dashPattern=12 12;" parent="1" source="eaYq0Ewcd9iAN9BhrdSB-1" target="ziyIApOVHxweAUHftoKy-1" edge="1">
          <mxGeometry relative="1" as="geometry" />
        </mxCell>
        <mxCell id="eaYq0Ewcd9iAN9BhrdSB-1" value="" style="rounded=1;whiteSpace=wrap;html=1;" parent="1" vertex="1">
          <mxGeometry x="500" y="90" width="820" height="503" as="geometry" />
        </mxCell>
        <mxCell id="saqxHqGWNbmvWWnPVZ3N-3" value="Sucursal" style="rounded=0;whiteSpace=wrap;html=1;fillColor=#d5e8d4;strokeColor=#82b366;" parent="1" vertex="1">
          <mxGeometry x="855" y="350" width="120" height="60" as="geometry" />
        </mxCell>
        <mxCell id="saqxHqGWNbmvWWnPVZ3N-12" value="1" style="text;html=1;align=center;verticalAlign=middle;resizable=0;points=[];autosize=1;strokeColor=none;fillColor=none;" parent="1" vertex="1">
          <mxGeometry x="640" y="310" width="30" height="30" as="geometry" />
        </mxCell>
        <mxCell id="saqxHqGWNbmvWWnPVZ3N-17" style="edgeStyle=orthogonalEdgeStyle;rounded=0;orthogonalLoop=1;jettySize=auto;html=1;entryX=1;entryY=0.5;entryDx=0;entryDy=0;endArrow=none;endFill=0;" parent="1" source="saqxHqGWNbmvWWnPVZ3N-18" target="saqxHqGWNbmvWWnPVZ3N-20" edge="1">
          <mxGeometry relative="1" as="geometry" />
        </mxCell>
        <mxCell id="hSziHSGmR5S64e_yRHO9-8" style="edgeStyle=orthogonalEdgeStyle;rounded=0;orthogonalLoop=1;jettySize=auto;html=1;endArrow=none;endFill=0;" parent="1" source="saqxHqGWNbmvWWnPVZ3N-18" target="saqxHqGWNbmvWWnPVZ3N-3" edge="1">
          <mxGeometry relative="1" as="geometry" />
        </mxCell>
        <mxCell id="saqxHqGWNbmvWWnPVZ3N-18" value="Ciudad" style="rounded=0;whiteSpace=wrap;html=1;fillColor=#d5e8d4;strokeColor=#82b366;" parent="1" vertex="1">
          <mxGeometry x="855" y="170" width="120" height="60" as="geometry" />
        </mxCell>
        <mxCell id="saqxHqGWNbmvWWnPVZ3N-19" style="edgeStyle=orthogonalEdgeStyle;rounded=0;orthogonalLoop=1;jettySize=auto;html=1;entryX=0.5;entryY=0;entryDx=0;entryDy=0;endArrow=none;endFill=0;" parent="1" source="saqxHqGWNbmvWWnPVZ3N-20" target="saqxHqGWNbmvWWnPVZ3N-21" edge="1">
          <mxGeometry relative="1" as="geometry" />
        </mxCell>
        <mxCell id="saqxHqGWNbmvWWnPVZ3N-20" value="Departamento" style="rounded=0;whiteSpace=wrap;html=1;fillColor=#d5e8d4;strokeColor=#82b366;" parent="1" vertex="1">
          <mxGeometry x="580" y="170" width="120" height="60" as="geometry" />
        </mxCell>
        <mxCell id="saqxHqGWNbmvWWnPVZ3N-21" value="Pais" style="rounded=0;whiteSpace=wrap;html=1;fillColor=#d5e8d4;strokeColor=#82b366;" parent="1" vertex="1">
          <mxGeometry x="580" y="350" width="120" height="60" as="geometry" />
        </mxCell>
        <mxCell id="saqxHqGWNbmvWWnPVZ3N-28" value="Tiene" style="text;html=1;align=center;verticalAlign=middle;whiteSpace=wrap;rounded=0;" parent="1" vertex="1">
          <mxGeometry x="570" y="272.5" width="60" height="30" as="geometry" />
        </mxCell>
        <mxCell id="saqxHqGWNbmvWWnPVZ3N-29" value="" style="endArrow=classic;html=1;rounded=0;" parent="1" edge="1">
          <mxGeometry width="50" height="50" relative="1" as="geometry">
            <mxPoint x="649" y="260" as="sourcePoint" />
            <mxPoint x="649" y="302.5" as="targetPoint" />
          </mxGeometry>
        </mxCell>
        <mxCell id="saqxHqGWNbmvWWnPVZ3N-30" value="" style="endArrow=classic;html=1;rounded=0;" parent="1" edge="1">
          <mxGeometry width="50" height="50" relative="1" as="geometry">
            <mxPoint x="630" y="308.43000000000006" as="sourcePoint" />
            <mxPoint x="630" y="266.55999999999995" as="targetPoint" />
          </mxGeometry>
        </mxCell>
        <mxCell id="saqxHqGWNbmvWWnPVZ3N-31" value="pertenece" style="text;html=1;align=center;verticalAlign=middle;whiteSpace=wrap;rounded=0;" parent="1" vertex="1">
          <mxGeometry x="660" y="270" width="60" height="30" as="geometry" />
        </mxCell>
        <mxCell id="saqxHqGWNbmvWWnPVZ3N-32" value="1..*" style="text;html=1;align=center;verticalAlign=middle;resizable=0;points=[];autosize=1;strokeColor=none;fillColor=none;" parent="1" vertex="1">
          <mxGeometry x="610" y="230" width="40" height="30" as="geometry" />
        </mxCell>
        <mxCell id="saqxHqGWNbmvWWnPVZ3N-33" value="Esta Ubicada" style="text;html=1;align=center;verticalAlign=middle;whiteSpace=wrap;rounded=0;rotation=-90;" parent="1" vertex="1">
          <mxGeometry x="835" y="280" width="90" height="30" as="geometry" />
        </mxCell>
        <mxCell id="saqxHqGWNbmvWWnPVZ3N-37" value="1..*" style="text;html=1;align=center;verticalAlign=middle;resizable=0;points=[];autosize=1;strokeColor=none;fillColor=none;" parent="1" vertex="1">
          <mxGeometry x="815" y="170" width="40" height="30" as="geometry" />
        </mxCell>
        <mxCell id="saqxHqGWNbmvWWnPVZ3N-38" value="1" style="text;html=1;align=center;verticalAlign=middle;resizable=0;points=[];autosize=1;strokeColor=none;fillColor=none;" parent="1" vertex="1">
          <mxGeometry x="700" y="200" width="30" height="30" as="geometry" />
        </mxCell>
        <mxCell id="saqxHqGWNbmvWWnPVZ3N-39" value="1" style="text;html=1;align=center;verticalAlign=middle;resizable=0;points=[];autosize=1;strokeColor=none;fillColor=none;" parent="1" vertex="1">
          <mxGeometry x="885" y="230" width="30" height="30" as="geometry" />
        </mxCell>
        <mxCell id="saqxHqGWNbmvWWnPVZ3N-41" value="0..*" style="text;html=1;align=center;verticalAlign=middle;resizable=0;points=[];autosize=1;strokeColor=none;fillColor=none;" parent="1" vertex="1">
          <mxGeometry x="915" y="320" width="40" height="30" as="geometry" />
        </mxCell>
        <mxCell id="saqxHqGWNbmvWWnPVZ3N-42" value="pertenece" style="text;html=1;align=center;verticalAlign=middle;whiteSpace=wrap;rounded=0;" parent="1" vertex="1">
          <mxGeometry x="755" y="220" width="60" height="30" as="geometry" />
        </mxCell>
        <mxCell id="saqxHqGWNbmvWWnPVZ3N-43" value="" style="endArrow=classic;html=1;rounded=0;" parent="1" edge="1">
          <mxGeometry width="50" height="50" relative="1" as="geometry">
            <mxPoint x="795" y="210" as="sourcePoint" />
            <mxPoint x="745" y="210" as="targetPoint" />
          </mxGeometry>
        </mxCell>
        <mxCell id="saqxHqGWNbmvWWnPVZ3N-44" value="" style="endArrow=classic;html=1;rounded=0;" parent="1" edge="1">
          <mxGeometry width="50" height="50" relative="1" as="geometry">
            <mxPoint x="745" y="190" as="sourcePoint" />
            <mxPoint x="795" y="190" as="targetPoint" />
          </mxGeometry>
        </mxCell>
        <mxCell id="saqxHqGWNbmvWWnPVZ3N-45" value="Tiene" style="text;html=1;align=center;verticalAlign=middle;whiteSpace=wrap;rounded=0;" parent="1" vertex="1">
          <mxGeometry x="745" y="150" width="60" height="30" as="geometry" />
        </mxCell>
        <mxCell id="saqxHqGWNbmvWWnPVZ3N-99" value="&lt;span style=&quot;font-size: 20px;&quot;&gt;&lt;b&gt;Sucursales&lt;/b&gt;&lt;/span&gt;" style="text;html=1;align=center;verticalAlign=middle;resizable=0;points=[];autosize=1;strokeColor=none;fillColor=none;" parent="1" vertex="1">
          <mxGeometry x="850" y="110" width="130" height="40" as="geometry" />
        </mxCell>
        <mxCell id="hSziHSGmR5S64e_yRHO9-12" value="" style="endArrow=classic;html=1;rounded=0;" parent="1" edge="1">
          <mxGeometry width="50" height="50" relative="1" as="geometry">
            <mxPoint x="925.0699999999999" y="272.5" as="sourcePoint" />
            <mxPoint x="925.0699999999999" y="315" as="targetPoint" />
          </mxGeometry>
        </mxCell>
        <mxCell id="hSziHSGmR5S64e_yRHO9-13" value="" style="endArrow=classic;html=1;rounded=0;" parent="1" edge="1">
          <mxGeometry width="50" height="50" relative="1" as="geometry">
            <mxPoint x="906.0699999999999" y="320.93000000000006" as="sourcePoint" />
            <mxPoint x="906.0699999999999" y="279.05999999999995" as="targetPoint" />
          </mxGeometry>
        </mxCell>
        <mxCell id="hSziHSGmR5S64e_yRHO9-15" value="Tiene" style="text;html=1;align=center;verticalAlign=middle;whiteSpace=wrap;rounded=0;rotation=90;" parent="1" vertex="1">
          <mxGeometry x="925" y="272.5" width="60" height="30" as="geometry" />
        </mxCell>
        <mxCell id="pIF59FMoRwNcW-NlBJX--2" style="edgeStyle=orthogonalEdgeStyle;rounded=0;orthogonalLoop=1;jettySize=auto;html=1;entryX=1;entryY=0.5;entryDx=0;entryDy=0;endArrow=none;endFill=0;" parent="1" source="pIF59FMoRwNcW-NlBJX--1" target="saqxHqGWNbmvWWnPVZ3N-3" edge="1">
          <mxGeometry relative="1" as="geometry">
            <Array as="points">
              <mxPoint x="975" y="375" />
            </Array>
          </mxGeometry>
        </mxCell>
        <mxCell id="pIF59FMoRwNcW-NlBJX--1" value="Spa" style="rounded=0;whiteSpace=wrap;html=1;fillColor=#cdeb8b;strokeColor=#36393d;" parent="1" vertex="1">
          <mxGeometry x="1181" y="345" width="120" height="60" as="geometry" />
        </mxCell>
        <mxCell id="befiUqIqlLXDNEqd4-ov-1" value="1" style="text;html=1;align=center;verticalAlign=middle;resizable=0;points=[];autosize=1;fillColor=none;" parent="1" vertex="1">
          <mxGeometry x="1151" y="380" width="30" height="30" as="geometry" />
        </mxCell>
        <mxCell id="gxkyX3x_5pRSsCjID6Al-1" value="Pertenece -&amp;gt;" style="text;html=1;align=center;verticalAlign=middle;resizable=0;points=[];autosize=1;rotation=0;fillColor=none;" parent="1" vertex="1">
          <mxGeometry x="1030" y="380" width="90" height="30" as="geometry" />
        </mxCell>
        <mxCell id="Xs71mboAmbrlPb1_2AKI-1" value="&lt;br&gt;&amp;lt;-Tiene" style="text;html=1;align=center;verticalAlign=middle;resizable=0;points=[];autosize=1;rotation=0;fillColor=none;" parent="1" vertex="1">
          <mxGeometry x="1050" y="330" width="60" height="40" as="geometry" />
        </mxCell>
        <mxCell id="Xs71mboAmbrlPb1_2AKI-2" value="1..*" style="text;html=1;align=center;verticalAlign=middle;resizable=0;points=[];autosize=1;strokeColor=none;fillColor=none;" parent="1" vertex="1">
          <mxGeometry x="970" y="345" width="40" height="30" as="geometry" />
        </mxCell>
        <mxCell id="ziyIApOVHxweAUHftoKy-1" value="Spa" style="ellipse;whiteSpace=wrap;html=1;fillColor=#cdeb8b;strokeColor=#36393d;" parent="1" vertex="1">
          <mxGeometry x="168" y="302.5" width="120" height="80" as="geometry" />
        </mxCell>
        <mxCell id="6hpp78-ojfXE1wQ_JNrw-1" value="&amp;lt;&amp;lt;needed of&amp;gt;&amp;gt;" style="text;html=1;align=center;verticalAlign=middle;resizable=0;points=[];autosize=1;strokeColor=none;fillColor=none;" parent="1" vertex="1">
          <mxGeometry x="344" y="313" width="100" height="30" as="geometry" />
        </mxCell>
        <mxCell id="Xi_Nc0kcnTNJlJxQKiYS-5" style="edgeStyle=orthogonalEdgeStyle;rounded=0;orthogonalLoop=1;jettySize=auto;html=1;endArrow=none;endFill=0;" parent="1" source="Xi_Nc0kcnTNJlJxQKiYS-6" edge="1">
          <mxGeometry relative="1" as="geometry">
            <mxPoint x="911" y="410" as="targetPoint" />
          </mxGeometry>
        </mxCell>
        <mxCell id="Xi_Nc0kcnTNJlJxQKiYS-6" value="Agenda" style="rounded=0;whiteSpace=wrap;html=1;fillColor=#d5e8d4;strokeColor=#82b366;" parent="1" vertex="1">
          <mxGeometry x="851" y="516" width="120" height="60" as="geometry" />
        </mxCell>
        <mxCell id="Xi_Nc0kcnTNJlJxQKiYS-7" value="&lt;br&gt;&amp;lt;- Pertenece" style="text;html=1;align=center;verticalAlign=middle;resizable=0;points=[];autosize=1;rotation=90;fillColor=none;" parent="1" vertex="1">
          <mxGeometry x="860" y="443" width="87" height="41" as="geometry" />
        </mxCell>
        <mxCell id="Xi_Nc0kcnTNJlJxQKiYS-8" value="&lt;br&gt;Tiene -&amp;gt;" style="text;html=1;align=center;verticalAlign=middle;resizable=0;points=[];autosize=1;rotation=90;fillColor=none;" parent="1" vertex="1">
          <mxGeometry x="904" y="437" width="62" height="41" as="geometry" />
        </mxCell>
        <mxCell id="wGAWQFefdgy0wLpbaeKN-1" value="1" style="text;html=1;align=center;verticalAlign=middle;resizable=0;points=[];autosize=1;strokeColor=none;fillColor=none;" parent="1" vertex="1">
          <mxGeometry x="879" y="411" width="25" height="26" as="geometry" />
        </mxCell>
        <mxCell id="wGAWQFefdgy0wLpbaeKN-2" value="1" style="text;html=1;align=center;verticalAlign=middle;resizable=0;points=[];autosize=1;strokeColor=none;fillColor=none;" parent="1" vertex="1">
          <mxGeometry x="915" y="487" width="25" height="26" as="geometry" />
        </mxCell>
      </root>
    </mxGraphModel>
  </diagram>
  <diagram id="PjjiBQBByGylY1RHHp6c" name="4.5 Servicios-ModeloDominioAcotado">
    <mxGraphModel dx="1520" dy="924" grid="0" gridSize="10" guides="1" tooltips="1" connect="1" arrows="1" fold="1" page="0" pageScale="1" pageWidth="827" pageHeight="1169" math="0" shadow="0">
      <root>
        <mxCell id="0" />
        <mxCell id="1" parent="0" />
        <mxCell id="sCE4JW4vGib-9gU21AwY-2" style="edgeStyle=orthogonalEdgeStyle;rounded=0;orthogonalLoop=1;jettySize=auto;html=1;dashed=1;dashPattern=8 8;" parent="1" source="IA66ZIsMtE5Hb1tEm9_v-3" target="sCE4JW4vGib-9gU21AwY-1" edge="1">
          <mxGeometry relative="1" as="geometry" />
        </mxCell>
        <mxCell id="IA66ZIsMtE5Hb1tEm9_v-3" value="" style="rounded=1;whiteSpace=wrap;html=1;" parent="1" vertex="1">
          <mxGeometry x="-30" y="40" width="780" height="370" as="geometry" />
        </mxCell>
        <mxCell id="2n4Va-vdUPTKDrdTodj4-3" style="edgeStyle=orthogonalEdgeStyle;rounded=0;orthogonalLoop=1;jettySize=auto;html=1;endArrow=none;endFill=0;exitX=1;exitY=0.5;exitDx=0;exitDy=0;" parent="1" source="x6Kev6DCtSwO5cj2pu-R-2" target="2n4Va-vdUPTKDrdTodj4-2" edge="1">
          <mxGeometry relative="1" as="geometry" />
        </mxCell>
        <mxCell id="x6Kev6DCtSwO5cj2pu-R-1" value="Servicio" style="rounded=0;whiteSpace=wrap;html=1;fillColor=#fad7ac;strokeColor=#b46504;" parent="1" vertex="1">
          <mxGeometry x="340" y="110" width="120" height="60" as="geometry" />
        </mxCell>
        <mxCell id="IA66ZIsMtE5Hb1tEm9_v-1" style="edgeStyle=orthogonalEdgeStyle;rounded=0;orthogonalLoop=1;jettySize=auto;html=1;endArrow=none;endFill=0;" parent="1" source="x6Kev6DCtSwO5cj2pu-R-2" target="x6Kev6DCtSwO5cj2pu-R-1" edge="1">
          <mxGeometry relative="1" as="geometry" />
        </mxCell>
        <mxCell id="x6Kev6DCtSwO5cj2pu-R-2" value="Oferta" style="rounded=0;whiteSpace=wrap;html=1;fillColor=#fad7ac;strokeColor=#b46504;" parent="1" vertex="1">
          <mxGeometry x="340" y="320" width="120" height="60" as="geometry" />
        </mxCell>
        <mxCell id="x6Kev6DCtSwO5cj2pu-R-3" value="Tiene -&amp;gt;" style="text;html=1;align=center;verticalAlign=middle;resizable=0;points=[];autosize=1;rotation=90;fillColor=none;" parent="1" vertex="1">
          <mxGeometry x="379" y="230" width="70" height="30" as="geometry" />
        </mxCell>
        <mxCell id="x6Kev6DCtSwO5cj2pu-R-4" value="&amp;lt;-Pertenece" style="text;html=1;align=center;verticalAlign=middle;resizable=0;points=[];autosize=1;rotation=90;fillColor=none;" parent="1" vertex="1">
          <mxGeometry x="340" y="230" width="90" height="30" as="geometry" />
        </mxCell>
        <mxCell id="x6Kev6DCtSwO5cj2pu-R-5" value="0..*&lt;br&gt;" style="text;html=1;align=center;verticalAlign=middle;resizable=0;points=[];autosize=1;fillColor=none;" parent="1" vertex="1">
          <mxGeometry x="400" y="290" width="40" height="30" as="geometry" />
        </mxCell>
        <mxCell id="x6Kev6DCtSwO5cj2pu-R-6" value="1&lt;br&gt;" style="text;html=1;align=center;verticalAlign=middle;resizable=0;points=[];autosize=1;fillColor=none;" parent="1" vertex="1">
          <mxGeometry x="370" y="170" width="30" height="30" as="geometry" />
        </mxCell>
        <mxCell id="x6Kev6DCtSwO5cj2pu-R-7" style="edgeStyle=orthogonalEdgeStyle;rounded=0;orthogonalLoop=1;jettySize=auto;html=1;endArrow=none;endFill=0;fillColor=none;" parent="1" source="x6Kev6DCtSwO5cj2pu-R-8" target="x6Kev6DCtSwO5cj2pu-R-1" edge="1">
          <mxGeometry relative="1" as="geometry">
            <Array as="points">
              <mxPoint x="230" y="140" />
              <mxPoint x="230" y="140" />
            </Array>
          </mxGeometry>
        </mxCell>
        <mxCell id="x6Kev6DCtSwO5cj2pu-R-8" value="TipoServicio" style="rounded=0;whiteSpace=wrap;html=1;fillColor=#fad7ac;strokeColor=#b46504;" parent="1" vertex="1">
          <mxGeometry x="40" y="110" width="120" height="60" as="geometry" />
        </mxCell>
        <mxCell id="x6Kev6DCtSwO5cj2pu-R-9" value="Pertenece -&amp;gt;" style="text;html=1;align=center;verticalAlign=middle;resizable=0;points=[];autosize=1;fillColor=none;" parent="1" vertex="1">
          <mxGeometry x="210" y="110" width="90" height="30" as="geometry" />
        </mxCell>
        <mxCell id="x6Kev6DCtSwO5cj2pu-R-10" value="&amp;lt;-Tiene" style="text;html=1;align=center;verticalAlign=middle;resizable=0;points=[];autosize=1;fillColor=none;" parent="1" vertex="1">
          <mxGeometry x="225" y="135" width="60" height="30" as="geometry" />
        </mxCell>
        <mxCell id="x6Kev6DCtSwO5cj2pu-R-11" value="1..*" style="text;html=1;align=center;verticalAlign=middle;resizable=0;points=[];autosize=1;fillColor=none;" parent="1" vertex="1">
          <mxGeometry x="300" y="110" width="40" height="30" as="geometry" />
        </mxCell>
        <mxCell id="x6Kev6DCtSwO5cj2pu-R-12" value="1" style="text;html=1;align=center;verticalAlign=middle;resizable=0;points=[];autosize=1;fillColor=none;" parent="1" vertex="1">
          <mxGeometry x="160" y="140" width="30" height="30" as="geometry" />
        </mxCell>
        <mxCell id="yDCHANhZMHJuIMgVY3B5-1" value="&lt;span style=&quot;font-size: 20px;&quot;&gt;&lt;b&gt;Servicios&lt;/b&gt;&lt;/span&gt;" style="text;html=1;align=center;verticalAlign=middle;resizable=0;points=[];autosize=1;strokeColor=none;fillColor=none;" parent="1" vertex="1">
          <mxGeometry x="320" y="50" width="110" height="40" as="geometry" />
        </mxCell>
        <mxCell id="sCE4JW4vGib-9gU21AwY-1" value="Notificaciones" style="ellipse;whiteSpace=wrap;html=1;fillColor=#ffff88;strokeColor=#36393d;" parent="1" vertex="1">
          <mxGeometry x="-280" y="185" width="120" height="80" as="geometry" />
        </mxCell>
        <mxCell id="2n4Va-vdUPTKDrdTodj4-1" value="&amp;lt;&amp;lt;needed of&amp;gt;&amp;gt;" style="text;html=1;align=center;verticalAlign=middle;resizable=0;points=[];autosize=1;strokeColor=none;fillColor=none;" parent="1" vertex="1">
          <mxGeometry x="-140" y="200" width="100" height="30" as="geometry" />
        </mxCell>
        <mxCell id="xZaOa91yp_9P-84GIMSu-2" style="edgeStyle=orthogonalEdgeStyle;rounded=0;orthogonalLoop=1;jettySize=auto;html=1;endArrow=none;endFill=0;" parent="1" source="2n4Va-vdUPTKDrdTodj4-2" target="xZaOa91yp_9P-84GIMSu-1" edge="1">
          <mxGeometry relative="1" as="geometry" />
        </mxCell>
        <mxCell id="2n4Va-vdUPTKDrdTodj4-2" value="Evento" style="rounded=0;whiteSpace=wrap;html=1;fillColor=#ffcc99;strokeColor=#36393d;" parent="1" vertex="1">
          <mxGeometry x="610" y="240" width="120" height="60" as="geometry" />
        </mxCell>
        <mxCell id="2n4Va-vdUPTKDrdTodj4-4" value="Realiza -&amp;gt;" style="text;html=1;align=center;verticalAlign=middle;resizable=0;points=[];autosize=1;fillColor=none;" parent="1" vertex="1">
          <mxGeometry x="509" y="327" width="72" height="26" as="geometry" />
        </mxCell>
        <mxCell id="2n4Va-vdUPTKDrdTodj4-5" value="&amp;lt;-Referencia" style="text;html=1;align=center;verticalAlign=middle;resizable=0;points=[];autosize=1;fillColor=none;" parent="1" vertex="1">
          <mxGeometry x="500" y="350" width="90" height="30" as="geometry" />
        </mxCell>
        <mxCell id="2n4Va-vdUPTKDrdTodj4-6" value="1" style="text;html=1;align=center;verticalAlign=middle;resizable=0;points=[];autosize=1;strokeColor=none;fillColor=none;" parent="1" vertex="1">
          <mxGeometry x="470" y="345" width="30" height="30" as="geometry" />
        </mxCell>
        <mxCell id="2n4Va-vdUPTKDrdTodj4-7" value="1..*" style="text;html=1;align=center;verticalAlign=middle;resizable=0;points=[];autosize=1;strokeColor=none;fillColor=none;" parent="1" vertex="1">
          <mxGeometry x="637" y="295" width="40" height="30" as="geometry" />
        </mxCell>
        <mxCell id="xZaOa91yp_9P-84GIMSu-1" value="Notificacion" style="rounded=0;whiteSpace=wrap;html=1;fillColor=#ffff88;strokeColor=#36393d;" parent="1" vertex="1">
          <mxGeometry x="610" y="53" width="120" height="60" as="geometry" />
        </mxCell>
        <mxCell id="xZaOa91yp_9P-84GIMSu-3" value="1..*" style="text;html=1;align=center;verticalAlign=middle;resizable=0;points=[];autosize=1;strokeColor=none;fillColor=none;" parent="1" vertex="1">
          <mxGeometry x="637" y="112" width="36" height="26" as="geometry" />
        </mxCell>
        <mxCell id="xZaOa91yp_9P-84GIMSu-5" value="1" style="text;html=1;align=center;verticalAlign=middle;resizable=0;points=[];autosize=1;strokeColor=none;fillColor=none;" parent="1" vertex="1">
          <mxGeometry x="670" y="214" width="25" height="26" as="geometry" />
        </mxCell>
        <mxCell id="xZaOa91yp_9P-84GIMSu-6" value="Tiene -&amp;gt;" style="text;html=1;align=center;verticalAlign=middle;resizable=0;points=[];autosize=1;rotation=-90;fillColor=none;" parent="1" vertex="1">
          <mxGeometry x="620" y="149" width="70" height="30" as="geometry" />
        </mxCell>
        <mxCell id="xZaOa91yp_9P-84GIMSu-7" value="&amp;lt;-Pertenece" style="text;html=1;align=center;verticalAlign=middle;resizable=0;points=[];autosize=1;rotation=-91;fillColor=none;" parent="1" vertex="1">
          <mxGeometry x="640" y="155" width="90" height="30" as="geometry" />
        </mxCell>
        <mxCell id="xZaOa91yp_9P-84GIMSu-8" value="1" style="text;html=1;align=center;verticalAlign=middle;resizable=0;points=[];autosize=1;strokeColor=none;fillColor=none;" parent="1" vertex="1">
          <mxGeometry x="917" y="-100" width="25" height="26" as="geometry" />
        </mxCell>
        <mxCell id="PcaaB9DUgdIpPO8SEuiY-2" style="edgeStyle=orthogonalEdgeStyle;rounded=0;orthogonalLoop=1;jettySize=auto;html=1;endArrow=none;endFill=0;" parent="1" source="PcaaB9DUgdIpPO8SEuiY-1" target="x6Kev6DCtSwO5cj2pu-R-1" edge="1">
          <mxGeometry relative="1" as="geometry">
            <Array as="points">
              <mxPoint x="360" y="299" />
            </Array>
          </mxGeometry>
        </mxCell>
        <mxCell id="PcaaB9DUgdIpPO8SEuiY-1" value="Tarifa" style="rounded=0;whiteSpace=wrap;html=1;fillColor=#fad7ac;strokeColor=#b46504;" parent="1" vertex="1">
          <mxGeometry x="37" y="269" width="120" height="60" as="geometry" />
        </mxCell>
        <mxCell id="PcaaB9DUgdIpPO8SEuiY-3" value="&amp;lt;-Tiene" style="text;html=1;align=center;verticalAlign=middle;resizable=0;points=[];autosize=1;fillColor=none;" parent="1" vertex="1">
          <mxGeometry x="210" y="297" width="60" height="30" as="geometry" />
        </mxCell>
        <mxCell id="PcaaB9DUgdIpPO8SEuiY-4" value="Pertenece -&amp;gt;" style="text;html=1;align=center;verticalAlign=middle;resizable=0;points=[];autosize=1;fillColor=none;" parent="1" vertex="1">
          <mxGeometry x="187" y="274" width="90" height="30" as="geometry" />
        </mxCell>
        <mxCell id="PcaaB9DUgdIpPO8SEuiY-5" value="1" style="text;html=1;align=center;verticalAlign=middle;resizable=0;points=[];autosize=1;fillColor=none;" parent="1" vertex="1">
          <mxGeometry x="155" y="302" width="30" height="30" as="geometry" />
        </mxCell>
        <mxCell id="PcaaB9DUgdIpPO8SEuiY-6" value="1..*" style="text;html=1;align=center;verticalAlign=middle;resizable=0;points=[];autosize=1;fillColor=none;" parent="1" vertex="1">
          <mxGeometry x="320" y="170" width="40" height="30" as="geometry" />
        </mxCell>
      </root>
    </mxGraphModel>
  </diagram>
  <diagram id="rEOHysiXwwPGr6YSqEsX" name="4.7 Reservas- ModeloDominioAcotado">
    <mxGraphModel dx="2427" dy="1918" grid="0" gridSize="10" guides="0" tooltips="1" connect="1" arrows="1" fold="1" page="1" pageScale="1" pageWidth="827" pageHeight="1169" math="0" shadow="0">
      <root>
        <mxCell id="0" />
        <mxCell id="1" parent="0" />
        <mxCell id="Y4GxsVzz-WP9SAli80Yk-1" value="" style="rounded=1;whiteSpace=wrap;html=1;" parent="1" vertex="1">
          <mxGeometry x="45" y="-1058" width="799" height="604" as="geometry" />
        </mxCell>
        <mxCell id="4pBVPs0QYtEBP8OK0tt3-1" style="edgeStyle=orthogonalEdgeStyle;rounded=0;orthogonalLoop=1;jettySize=auto;html=1;entryX=1;entryY=0.5;entryDx=0;entryDy=0;dashed=1;dashPattern=12 12;endArrow=open;endFill=0;" parent="1" target="DevfMNjB2eGtcFE19Y0G-1" edge="1">
          <mxGeometry relative="1" as="geometry">
            <mxPoint x="47" y="-860" as="sourcePoint" />
          </mxGeometry>
        </mxCell>
        <mxCell id="Eq4eeksfoRL7gMz53kYN-17" style="edgeStyle=orthogonalEdgeStyle;rounded=0;orthogonalLoop=1;jettySize=auto;html=1;endArrow=none;endFill=0;" parent="1" source="Eq4eeksfoRL7gMz53kYN-1" target="Eq4eeksfoRL7gMz53kYN-12" edge="1">
          <mxGeometry relative="1" as="geometry" />
        </mxCell>
        <mxCell id="Eq4eeksfoRL7gMz53kYN-18" style="edgeStyle=orthogonalEdgeStyle;rounded=0;orthogonalLoop=1;jettySize=auto;html=1;endArrow=none;endFill=0;" parent="1" source="Eq4eeksfoRL7gMz53kYN-1" target="Eq4eeksfoRL7gMz53kYN-2" edge="1">
          <mxGeometry relative="1" as="geometry" />
        </mxCell>
        <mxCell id="fJgbxYZXFUnv_ykel52I-1" style="edgeStyle=orthogonalEdgeStyle;rounded=0;orthogonalLoop=1;jettySize=auto;html=1;entryX=1;entryY=0.5;entryDx=0;entryDy=0;endArrow=none;endFill=0;" parent="1" source="Eq4eeksfoRL7gMz53kYN-1" target="l71ufW-rYpdqGQtNZ7Gw-2" edge="1">
          <mxGeometry relative="1" as="geometry" />
        </mxCell>
        <mxCell id="wmpGTA_PtDNecU_Paeqr-3" style="edgeStyle=orthogonalEdgeStyle;rounded=0;orthogonalLoop=1;jettySize=auto;html=1;endArrow=none;endFill=0;" parent="1" source="Eq4eeksfoRL7gMz53kYN-1" target="wmpGTA_PtDNecU_Paeqr-2" edge="1">
          <mxGeometry relative="1" as="geometry">
            <Array as="points">
              <mxPoint x="372" y="-612" />
            </Array>
          </mxGeometry>
        </mxCell>
        <mxCell id="Eq4eeksfoRL7gMz53kYN-1" value="Reserva" style="rounded=0;whiteSpace=wrap;html=1;fillColor=#b0e3e6;strokeColor=#0e8088;" parent="1" vertex="1">
          <mxGeometry x="354" y="-812" width="120" height="60" as="geometry" />
        </mxCell>
        <mxCell id="Eq4eeksfoRL7gMz53kYN-2" value="Consentimiento" style="rounded=0;whiteSpace=wrap;html=1;fillColor=#b0e3e6;strokeColor=#0e8088;" parent="1" vertex="1">
          <mxGeometry x="604" y="-932" width="120" height="60" as="geometry" />
        </mxCell>
        <mxCell id="Eq4eeksfoRL7gMz53kYN-7" value="1..*" style="text;html=1;align=center;verticalAlign=middle;resizable=0;points=[];autosize=1;fillColor=none;" parent="1" vertex="1">
          <mxGeometry x="383" y="-751" width="36" height="26" as="geometry" />
        </mxCell>
        <mxCell id="Eq4eeksfoRL7gMz53kYN-8" value="&amp;nbsp;Tiene-&amp;gt;" style="text;html=1;align=center;verticalAlign=middle;resizable=0;points=[];autosize=1;fillColor=none;rotation=-90;" parent="1" vertex="1">
          <mxGeometry x="618" y="-822" width="70" height="30" as="geometry" />
        </mxCell>
        <mxCell id="Eq4eeksfoRL7gMz53kYN-9" value="&amp;lt;-Pertenece" style="text;html=1;align=center;verticalAlign=middle;resizable=0;points=[];autosize=1;fillColor=none;rotation=-90;" parent="1" vertex="1">
          <mxGeometry x="634" y="-822" width="90" height="30" as="geometry" />
        </mxCell>
        <mxCell id="Eq4eeksfoRL7gMz53kYN-10" value="1" style="text;html=1;align=center;verticalAlign=middle;resizable=0;points=[];autosize=1;fillColor=none;" parent="1" vertex="1">
          <mxGeometry x="634" y="-872" width="30" height="30" as="geometry" />
        </mxCell>
        <mxCell id="Eq4eeksfoRL7gMz53kYN-11" value="1" style="text;html=1;align=center;verticalAlign=middle;resizable=0;points=[];autosize=1;fillColor=none;" parent="1" vertex="1">
          <mxGeometry x="474" y="-782" width="30" height="30" as="geometry" />
        </mxCell>
        <mxCell id="Eq4eeksfoRL7gMz53kYN-12" value="Cliente" style="rounded=0;whiteSpace=wrap;html=1;fillColor=#e1d5e7;strokeColor=#9673a6;" parent="1" vertex="1">
          <mxGeometry x="354" y="-980" width="120" height="60" as="geometry" />
        </mxCell>
        <mxCell id="Eq4eeksfoRL7gMz53kYN-13" value="&amp;nbsp;&amp;lt;-Pertenece" style="text;html=1;align=center;verticalAlign=middle;resizable=0;points=[];autosize=1;fillColor=none;rotation=90;" parent="1" vertex="1">
          <mxGeometry x="354" y="-882" width="90" height="30" as="geometry" />
        </mxCell>
        <mxCell id="Eq4eeksfoRL7gMz53kYN-14" value="Tiene-&amp;gt;" style="text;html=1;align=center;verticalAlign=middle;resizable=0;points=[];autosize=1;fillColor=none;rotation=90;" parent="1" vertex="1">
          <mxGeometry x="394" y="-882" width="60" height="30" as="geometry" />
        </mxCell>
        <mxCell id="Eq4eeksfoRL7gMz53kYN-15" value="0..*" style="text;html=1;align=center;verticalAlign=middle;resizable=0;points=[];autosize=1;fillColor=none;" parent="1" vertex="1">
          <mxGeometry x="414" y="-842" width="40" height="30" as="geometry" />
        </mxCell>
        <mxCell id="Eq4eeksfoRL7gMz53kYN-16" value="1" style="text;html=1;align=center;verticalAlign=middle;resizable=0;points=[];autosize=1;fillColor=none;" parent="1" vertex="1">
          <mxGeometry x="384" y="-922" width="30" height="30" as="geometry" />
        </mxCell>
        <mxCell id="DlVHd9r_img7j8Pq0KAy-1" value="&lt;span style=&quot;font-size: 20px;&quot;&gt;&lt;b&gt;Reservas&lt;/b&gt;&lt;/span&gt;" style="text;html=1;align=center;verticalAlign=middle;resizable=0;points=[];autosize=1;strokeColor=none;fillColor=none;" parent="1" vertex="1">
          <mxGeometry x="360" y="-1035" width="107" height="36" as="geometry" />
        </mxCell>
        <mxCell id="DevfMNjB2eGtcFE19Y0G-1" value="Sucursales" style="ellipse;whiteSpace=wrap;html=1;fillColor=#d5e8d4;strokeColor=#82b366;" parent="1" vertex="1">
          <mxGeometry x="-198" y="-900" width="120" height="80" as="geometry" />
        </mxCell>
        <mxCell id="DevfMNjB2eGtcFE19Y0G-2" value="Servicios" style="ellipse;whiteSpace=wrap;html=1;fillColor=#fad7ac;strokeColor=#b46504;" parent="1" vertex="1">
          <mxGeometry x="-197" y="-802" width="120" height="80" as="geometry" />
        </mxCell>
        <mxCell id="qYlhzMqM5etk6XbTixfY-2" style="edgeStyle=orthogonalEdgeStyle;rounded=0;orthogonalLoop=1;jettySize=auto;html=1;endArrow=none;endFill=0;" parent="1" source="l71ufW-rYpdqGQtNZ7Gw-1" target="Eq4eeksfoRL7gMz53kYN-1" edge="1">
          <mxGeometry relative="1" as="geometry" />
        </mxCell>
        <mxCell id="l71ufW-rYpdqGQtNZ7Gw-1" value="Servicio" style="rounded=0;whiteSpace=wrap;html=1;fillColor=#fad7ac;strokeColor=#b46504;" parent="1" vertex="1">
          <mxGeometry x="656" y="-642" width="120" height="60" as="geometry" />
        </mxCell>
        <mxCell id="l71ufW-rYpdqGQtNZ7Gw-2" value="Sucursal" style="rounded=0;whiteSpace=wrap;html=1;fillColor=#d5e8d4;strokeColor=#82b366;" parent="1" vertex="1">
          <mxGeometry x="85" y="-946" width="120" height="60" as="geometry" />
        </mxCell>
        <mxCell id="fJgbxYZXFUnv_ykel52I-2" value="&lt;br&gt;&amp;lt;- Pertenece" style="text;html=1;align=center;verticalAlign=middle;resizable=0;points=[];autosize=1;rotation=90;fillColor=none;" parent="1" vertex="1">
          <mxGeometry x="227" y="-872" width="90" height="40" as="geometry" />
        </mxCell>
        <mxCell id="fJgbxYZXFUnv_ykel52I-3" value="Tiene -&amp;gt;" style="text;html=1;align=center;verticalAlign=middle;resizable=0;points=[];autosize=1;rotation=90;fillColor=none;" parent="1" vertex="1">
          <mxGeometry x="260" y="-868" width="70" height="30" as="geometry" />
        </mxCell>
        <mxCell id="fJgbxYZXFUnv_ykel52I-4" value="1" style="text;html=1;align=center;verticalAlign=middle;resizable=0;points=[];autosize=1;fillColor=none;" parent="1" vertex="1">
          <mxGeometry x="204" y="-912" width="30" height="30" as="geometry" />
        </mxCell>
        <mxCell id="fJgbxYZXFUnv_ykel52I-5" value="0..*" style="text;html=1;align=center;verticalAlign=middle;resizable=0;points=[];autosize=1;fillColor=none;" parent="1" vertex="1">
          <mxGeometry x="314" y="-812" width="40" height="30" as="geometry" />
        </mxCell>
        <mxCell id="D-J9nnOnEsn4lu_jkPwU-3" value="&amp;nbsp;&amp;lt;-Pertenece" style="text;html=1;align=center;verticalAlign=middle;resizable=0;points=[];autosize=1;fillColor=none;" parent="1" vertex="1">
          <mxGeometry x="503" y="-609" width="90" height="30" as="geometry" />
        </mxCell>
        <mxCell id="D-J9nnOnEsn4lu_jkPwU-4" value="Tiene-&amp;gt;" style="text;html=1;align=center;verticalAlign=middle;resizable=0;points=[];autosize=1;fillColor=none;" parent="1" vertex="1">
          <mxGeometry x="512" y="-645" width="60" height="30" as="geometry" />
        </mxCell>
        <mxCell id="kJlimve063uVLXLBkwPp-1" value="&amp;lt;&amp;lt;needed of&amp;gt;&amp;gt;" style="text;html=1;align=center;verticalAlign=middle;resizable=0;points=[];autosize=1;strokeColor=none;fillColor=none;" parent="1" vertex="1">
          <mxGeometry x="-60" y="-795" width="100" height="30" as="geometry" />
        </mxCell>
        <mxCell id="kJlimve063uVLXLBkwPp-2" value="&amp;lt;&amp;lt;needed of&amp;gt;&amp;gt;" style="text;html=1;align=center;verticalAlign=middle;resizable=0;points=[];autosize=1;strokeColor=none;fillColor=none;" parent="1" vertex="1">
          <mxGeometry x="-64" y="-898" width="100" height="30" as="geometry" />
        </mxCell>
        <mxCell id="Myav8dqj3MePdI0I62Un-1" style="edgeStyle=orthogonalEdgeStyle;rounded=0;orthogonalLoop=1;jettySize=auto;html=1;entryX=1;entryY=0.5;entryDx=0;entryDy=0;dashed=1;dashPattern=12 12;endArrow=open;endFill=0;exitX=-0.004;exitY=0.682;exitDx=0;exitDy=0;exitPerimeter=0;" parent="1" target="DevfMNjB2eGtcFE19Y0G-2" edge="1">
          <mxGeometry relative="1" as="geometry">
            <Array as="points">
              <mxPoint x="47" y="-762" />
            </Array>
            <mxPoint x="47.02399999999989" y="-760.402" as="sourcePoint" />
            <mxPoint x="-23" y="-762" as="targetPoint" />
          </mxGeometry>
        </mxCell>
        <mxCell id="4pBVPs0QYtEBP8OK0tt3-2" value="Clientes" style="ellipse;whiteSpace=wrap;html=1;fillColor=#e1d5e7;strokeColor=#9673a6;" parent="1" vertex="1">
          <mxGeometry x="-194" y="-696" width="120" height="80" as="geometry" />
        </mxCell>
        <mxCell id="4pBVPs0QYtEBP8OK0tt3-3" style="edgeStyle=orthogonalEdgeStyle;rounded=0;orthogonalLoop=1;jettySize=auto;html=1;entryX=1;entryY=0.5;entryDx=0;entryDy=0;dashed=1;dashPattern=12 12;endArrow=open;endFill=0;" parent="1" edge="1">
          <mxGeometry relative="1" as="geometry">
            <mxPoint x="50" y="-657" as="sourcePoint" />
            <mxPoint x="-75" y="-657" as="targetPoint" />
          </mxGeometry>
        </mxCell>
        <mxCell id="4pBVPs0QYtEBP8OK0tt3-4" value="&amp;lt;&amp;lt;needed of&amp;gt;&amp;gt;" style="text;html=1;align=center;verticalAlign=middle;resizable=0;points=[];autosize=1;strokeColor=none;fillColor=none;" parent="1" vertex="1">
          <mxGeometry x="-61" y="-695" width="100" height="30" as="geometry" />
        </mxCell>
        <mxCell id="wmpGTA_PtDNecU_Paeqr-2" value="Notificacion" style="rounded=0;whiteSpace=wrap;html=1;fillColor=#ffff88;strokeColor=#36393d;" parent="1" vertex="1">
          <mxGeometry x="90" y="-644" width="120" height="60" as="geometry" />
        </mxCell>
        <mxCell id="wmpGTA_PtDNecU_Paeqr-7" value="&amp;nbsp;&amp;lt;-Pertenece" style="text;html=1;align=center;verticalAlign=middle;resizable=0;points=[];autosize=1;fillColor=none;" parent="1" vertex="1">
          <mxGeometry x="242" y="-612" width="90" height="30" as="geometry" />
        </mxCell>
        <mxCell id="wmpGTA_PtDNecU_Paeqr-8" value="Tiene-&amp;gt;" style="text;html=1;align=center;verticalAlign=middle;resizable=0;points=[];autosize=1;fillColor=none;" parent="1" vertex="1">
          <mxGeometry x="261" y="-642" width="60" height="30" as="geometry" />
        </mxCell>
        <mxCell id="U1OsAEdXrSUYqgl4RswW-2" value="0..1" style="text;html=1;align=center;verticalAlign=middle;resizable=0;points=[];autosize=1;strokeColor=none;fillColor=none;" parent="1" vertex="1">
          <mxGeometry x="210" y="-612" width="38" height="26" as="geometry" />
        </mxCell>
        <mxCell id="XNQ8u3o1A0PgtUNQjN0_-1" value="Notificaciones" style="ellipse;whiteSpace=wrap;html=1;fillColor=#ffff88;strokeColor=#36393d;" parent="1" vertex="1">
          <mxGeometry x="-195" y="-598" width="120" height="80" as="geometry" />
        </mxCell>
        <mxCell id="XNQ8u3o1A0PgtUNQjN0_-2" style="edgeStyle=orthogonalEdgeStyle;rounded=0;orthogonalLoop=1;jettySize=auto;html=1;entryX=1;entryY=0.5;entryDx=0;entryDy=0;dashed=1;dashPattern=12 12;endArrow=open;endFill=0;" parent="1" edge="1">
          <mxGeometry relative="1" as="geometry">
            <mxPoint x="48" y="-561" as="sourcePoint" />
            <mxPoint x="-77" y="-561" as="targetPoint" />
          </mxGeometry>
        </mxCell>
        <mxCell id="XNQ8u3o1A0PgtUNQjN0_-3" value="&amp;lt;&amp;lt;needed of&amp;gt;&amp;gt;" style="text;html=1;align=center;verticalAlign=middle;resizable=0;points=[];autosize=1;strokeColor=none;fillColor=none;" parent="1" vertex="1">
          <mxGeometry x="-63" y="-599" width="100" height="30" as="geometry" />
        </mxCell>
        <mxCell id="qYlhzMqM5etk6XbTixfY-3" value="1" style="text;html=1;align=center;verticalAlign=middle;resizable=0;points=[];autosize=1;strokeColor=none;fillColor=none;" parent="1" vertex="1">
          <mxGeometry x="622" y="-643" width="30" height="30" as="geometry" />
        </mxCell>
      </root>
    </mxGraphModel>
  </diagram>
  <diagram id="LmDs8YIagqLJW_qHY7uN" name="4.8 Facturacion- ModeloDominioAcotado">
    <mxGraphModel dx="1707" dy="524" grid="0" gridSize="10" guides="1" tooltips="1" connect="1" arrows="1" fold="1" page="1" pageScale="1" pageWidth="827" pageHeight="1169" math="0" shadow="0">
      <root>
        <mxCell id="0" />
        <mxCell id="1" parent="0" />
        <mxCell id="IR5F0soxgmLj2-XiOWYo-3" style="edgeStyle=orthogonalEdgeStyle;rounded=0;orthogonalLoop=1;jettySize=auto;html=1;dashed=1;endArrow=open;endFill=0;" parent="1" source="_CmRfpuccCP4-arlrdXV-16" edge="1">
          <mxGeometry relative="1" as="geometry">
            <Array as="points">
              <mxPoint x="-203" y="177" />
              <mxPoint x="-203" y="177" />
            </Array>
            <mxPoint x="-204" y="177" as="targetPoint" />
          </mxGeometry>
        </mxCell>
        <mxCell id="jTZJpnfpXfiyYEZpxGvY-2" style="edgeStyle=orthogonalEdgeStyle;rounded=0;orthogonalLoop=1;jettySize=auto;html=1;dashed=1;endArrow=open;endFill=0;" parent="1" source="_CmRfpuccCP4-arlrdXV-16" target="jTZJpnfpXfiyYEZpxGvY-1" edge="1">
          <mxGeometry relative="1" as="geometry">
            <Array as="points">
              <mxPoint x="125" y="76" />
            </Array>
          </mxGeometry>
        </mxCell>
        <mxCell id="8L0eTpeTQakco3hc9oxU-7" style="edgeStyle=orthogonalEdgeStyle;rounded=0;orthogonalLoop=1;jettySize=auto;html=1;endArrow=open;endFill=0;dashed=1;dashPattern=8 8;" parent="1" source="_CmRfpuccCP4-arlrdXV-16" target="8L0eTpeTQakco3hc9oxU-5" edge="1">
          <mxGeometry relative="1" as="geometry">
            <Array as="points">
              <mxPoint x="-129" y="446" />
              <mxPoint x="-129" y="446" />
            </Array>
          </mxGeometry>
        </mxCell>
        <mxCell id="_CmRfpuccCP4-arlrdXV-16" value="" style="rounded=1;whiteSpace=wrap;html=1;" parent="1" vertex="1">
          <mxGeometry x="-88" y="84" width="440" height="472" as="geometry" />
        </mxCell>
        <mxCell id="GcjigsH1yHwCVuyWCgSJ-2" style="edgeStyle=orthogonalEdgeStyle;rounded=0;orthogonalLoop=1;jettySize=auto;html=1;dashed=1;endArrow=open;endFill=0;exitX=0.001;exitY=0.413;exitDx=0;exitDy=0;exitPerimeter=0;" parent="1" target="GcjigsH1yHwCVuyWCgSJ-1" edge="1">
          <mxGeometry relative="1" as="geometry">
            <mxPoint x="-87.99799999999985" y="319.05099999999993" as="sourcePoint" />
          </mxGeometry>
        </mxCell>
        <mxCell id="tEbEpIjReUcbAAQ9MPFW-2" style="edgeStyle=orthogonalEdgeStyle;rounded=0;orthogonalLoop=1;jettySize=auto;html=1;endArrow=none;endFill=0;" parent="1" source="_CmRfpuccCP4-arlrdXV-2" target="tEbEpIjReUcbAAQ9MPFW-1" edge="1">
          <mxGeometry relative="1" as="geometry" />
        </mxCell>
        <mxCell id="jTZJpnfpXfiyYEZpxGvY-5" style="edgeStyle=orthogonalEdgeStyle;rounded=0;orthogonalLoop=1;jettySize=auto;html=1;entryX=1;entryY=0.5;entryDx=0;entryDy=0;endArrow=none;endFill=0;" parent="1" source="_CmRfpuccCP4-arlrdXV-2" target="jTZJpnfpXfiyYEZpxGvY-4" edge="1">
          <mxGeometry relative="1" as="geometry">
            <Array as="points">
              <mxPoint x="185" y="265" />
              <mxPoint x="117" y="265" />
              <mxPoint x="117" y="165" />
            </Array>
          </mxGeometry>
        </mxCell>
        <mxCell id="_CmRfpuccCP4-arlrdXV-2" value="Factura" style="rounded=0;whiteSpace=wrap;html=1;fillColor=#bac8d3;strokeColor=#23445d;" parent="1" vertex="1">
          <mxGeometry x="180" y="295" width="120" height="60" as="geometry" />
        </mxCell>
        <mxCell id="_CmRfpuccCP4-arlrdXV-5" style="edgeStyle=orthogonalEdgeStyle;rounded=0;orthogonalLoop=1;jettySize=auto;html=1;endArrow=none;endFill=0;fillColor=none;" parent="1" source="_CmRfpuccCP4-arlrdXV-6" target="_CmRfpuccCP4-arlrdXV-2" edge="1">
          <mxGeometry relative="1" as="geometry" />
        </mxCell>
        <mxCell id="_CmRfpuccCP4-arlrdXV-6" value="Pago" style="rounded=0;whiteSpace=wrap;html=1;fillColor=#e6d0de;strokeColor=#996185;gradientColor=#d5739d;" parent="1" vertex="1">
          <mxGeometry x="180" y="135" width="120" height="60" as="geometry" />
        </mxCell>
        <mxCell id="_CmRfpuccCP4-arlrdXV-7" value="Tiene-&amp;gt;" style="text;html=1;align=center;verticalAlign=middle;resizable=0;points=[];autosize=1;fillColor=none;rotation=0;" parent="1" vertex="1">
          <mxGeometry x="82" y="293" width="60" height="30" as="geometry" />
        </mxCell>
        <mxCell id="_CmRfpuccCP4-arlrdXV-8" value="&amp;lt;-Pertenece" style="text;html=1;align=center;verticalAlign=middle;resizable=0;points=[];autosize=1;fillColor=none;rotation=-90;" parent="1" vertex="1">
          <mxGeometry x="180" y="235" width="90" height="30" as="geometry" />
        </mxCell>
        <mxCell id="_CmRfpuccCP4-arlrdXV-9" value="1" style="text;html=1;align=center;verticalAlign=middle;resizable=0;points=[];autosize=1;fillColor=none;" parent="1" vertex="1">
          <mxGeometry x="235" y="265" width="30" height="30" as="geometry" />
        </mxCell>
        <mxCell id="_CmRfpuccCP4-arlrdXV-10" value="1" style="text;html=1;align=center;verticalAlign=middle;resizable=0;points=[];autosize=1;fillColor=none;" parent="1" vertex="1">
          <mxGeometry x="205" y="195" width="30" height="30" as="geometry" />
        </mxCell>
        <mxCell id="BwzRfctqcH3I6wXIf_cr-1" value="&lt;span style=&quot;font-size: 20px;&quot;&gt;&lt;b&gt;Facturacion&lt;/b&gt;&lt;/span&gt;" style="text;html=1;align=center;verticalAlign=middle;resizable=0;points=[];autosize=1;strokeColor=none;fillColor=none;" parent="1" vertex="1">
          <mxGeometry x="54" y="84" width="131" height="36" as="geometry" />
        </mxCell>
        <mxCell id="GcjigsH1yHwCVuyWCgSJ-1" value="Reservas" style="ellipse;whiteSpace=wrap;html=1;fillColor=#b0e3e6;strokeColor=#0e8088;" parent="1" vertex="1">
          <mxGeometry x="-323.78" y="279" width="120" height="80" as="geometry" />
        </mxCell>
        <mxCell id="tEbEpIjReUcbAAQ9MPFW-1" value="Reserva" style="rounded=0;whiteSpace=wrap;html=1;fillColor=#b0e3e6;strokeColor=#0e8088;" parent="1" vertex="1">
          <mxGeometry x="-68" y="295" width="120" height="60" as="geometry" />
        </mxCell>
        <mxCell id="1mEagno-nMDBXmo-9jg6-1" value="&amp;nbsp;Genera-&amp;gt;" style="text;html=1;align=center;verticalAlign=middle;resizable=0;points=[];autosize=1;fillColor=none;rotation=-90;" parent="1" vertex="1">
          <mxGeometry x="216" y="225" width="80" height="30" as="geometry" />
        </mxCell>
        <mxCell id="1mEagno-nMDBXmo-9jg6-2" value="&amp;lt;-Pertenece" style="text;html=1;align=center;verticalAlign=middle;resizable=0;points=[];autosize=1;fillColor=none;rotation=0;" parent="1" vertex="1">
          <mxGeometry x="71" y="329" width="90" height="30" as="geometry" />
        </mxCell>
        <mxCell id="o7BPvnZd31xmm8spHZLA-1" value="1" style="text;html=1;align=center;verticalAlign=middle;resizable=0;points=[];autosize=1;fillColor=none;" parent="1" vertex="1">
          <mxGeometry x="49" y="325" width="30" height="30" as="geometry" />
        </mxCell>
        <mxCell id="o7BPvnZd31xmm8spHZLA-2" value="1" style="text;html=1;align=center;verticalAlign=middle;resizable=0;points=[];autosize=1;fillColor=none;" parent="1" vertex="1">
          <mxGeometry x="150" y="290" width="30" height="30" as="geometry" />
        </mxCell>
        <mxCell id="rN1HR0SzcrcaYcpk5eUx-1" value="&amp;lt;&amp;lt;needed of&amp;gt;&amp;gt;" style="text;html=1;align=center;verticalAlign=middle;resizable=0;points=[];autosize=1;strokeColor=none;fillColor=none;rotation=0;" parent="1" vertex="1">
          <mxGeometry x="-193.78" y="295" width="100" height="30" as="geometry" />
        </mxCell>
        <mxCell id="IR5F0soxgmLj2-XiOWYo-1" value="Pagos" style="ellipse;whiteSpace=wrap;html=1;fillColor=#e6d0de;strokeColor=#996185;gradientColor=#d5739d;" parent="1" vertex="1">
          <mxGeometry x="-323.78" y="142" width="120" height="80" as="geometry" />
        </mxCell>
        <mxCell id="IR5F0soxgmLj2-XiOWYo-2" value="&amp;lt;&amp;lt;needed of&amp;gt;&amp;gt;" style="text;html=1;align=center;verticalAlign=middle;resizable=0;points=[];autosize=1;strokeColor=none;fillColor=none;rotation=0;" parent="1" vertex="1">
          <mxGeometry x="-193.78" y="150" width="100" height="30" as="geometry" />
        </mxCell>
        <mxCell id="jTZJpnfpXfiyYEZpxGvY-1" value="Notificaciones" style="ellipse;whiteSpace=wrap;html=1;fillColor=#ffff88;strokeColor=#36393d;" parent="1" vertex="1">
          <mxGeometry x="-323.78" y="36" width="120" height="80" as="geometry" />
        </mxCell>
        <mxCell id="jTZJpnfpXfiyYEZpxGvY-3" value="&amp;lt;&amp;lt;needed of&amp;gt;&amp;gt;" style="text;html=1;align=center;verticalAlign=middle;resizable=0;points=[];autosize=1;strokeColor=none;fillColor=none;rotation=0;" parent="1" vertex="1">
          <mxGeometry x="-174" y="47" width="100" height="30" as="geometry" />
        </mxCell>
        <mxCell id="jTZJpnfpXfiyYEZpxGvY-4" value="Notificacion" style="rounded=0;whiteSpace=wrap;html=1;fillColor=#ffff88;strokeColor=#36393d;" parent="1" vertex="1">
          <mxGeometry x="-66" y="135" width="120" height="60" as="geometry" />
        </mxCell>
        <mxCell id="jTZJpnfpXfiyYEZpxGvY-8" value="Tiene-&amp;gt;" style="text;html=1;align=center;verticalAlign=middle;resizable=0;points=[];autosize=1;fillColor=none;rotation=-90;" parent="1" vertex="1">
          <mxGeometry x="71" y="207" width="60" height="30" as="geometry" />
        </mxCell>
        <mxCell id="jTZJpnfpXfiyYEZpxGvY-9" value="&amp;lt;-Pertenece" style="text;html=1;align=center;verticalAlign=middle;resizable=0;points=[];autosize=1;fillColor=none;rotation=-90;" parent="1" vertex="1">
          <mxGeometry x="95" y="198" width="90" height="30" as="geometry" />
        </mxCell>
        <mxCell id="jTZJpnfpXfiyYEZpxGvY-10" value="1" style="text;html=1;align=center;verticalAlign=middle;resizable=0;points=[];autosize=1;strokeColor=none;fillColor=none;" parent="1" vertex="1">
          <mxGeometry x="54" y="167" width="25" height="26" as="geometry" />
        </mxCell>
        <mxCell id="jTZJpnfpXfiyYEZpxGvY-11" value="1" style="text;html=1;align=center;verticalAlign=middle;resizable=0;points=[];autosize=1;strokeColor=none;fillColor=none;" parent="1" vertex="1">
          <mxGeometry x="188" y="269" width="25" height="26" as="geometry" />
        </mxCell>
        <mxCell id="SgNztlV2TvGoVXhUjOz3-2" style="edgeStyle=orthogonalEdgeStyle;rounded=0;orthogonalLoop=1;jettySize=auto;html=1;endArrow=none;endFill=0;" parent="1" source="SgNztlV2TvGoVXhUjOz3-1" target="_CmRfpuccCP4-arlrdXV-2" edge="1">
          <mxGeometry relative="1" as="geometry" />
        </mxCell>
        <mxCell id="SgNztlV2TvGoVXhUjOz3-1" value="ProductoInventario" style="rounded=0;whiteSpace=wrap;html=1;fillColor=#f8cecc;strokeColor=#b85450;" parent="1" vertex="1">
          <mxGeometry x="-59" y="442" width="120" height="60" as="geometry" />
        </mxCell>
        <mxCell id="8L0eTpeTQakco3hc9oxU-1" value="Referencia en-&amp;gt;" style="text;html=1;align=center;verticalAlign=middle;resizable=0;points=[];autosize=1;strokeColor=none;fillColor=none;" parent="1" vertex="1">
          <mxGeometry x="107" y="447" width="104" height="26" as="geometry" />
        </mxCell>
        <mxCell id="8L0eTpeTQakco3hc9oxU-2" value="&amp;lt;-Tiene&amp;nbsp;" style="text;html=1;align=center;verticalAlign=middle;resizable=0;points=[];autosize=1;strokeColor=none;fillColor=none;" parent="1" vertex="1">
          <mxGeometry x="122" y="477" width="62" height="26" as="geometry" />
        </mxCell>
        <mxCell id="8L0eTpeTQakco3hc9oxU-3" value="0..*" style="text;html=1;align=center;verticalAlign=middle;resizable=0;points=[];autosize=1;strokeColor=none;fillColor=none;" parent="1" vertex="1">
          <mxGeometry x="206" y="355" width="36" height="26" as="geometry" />
        </mxCell>
        <mxCell id="8L0eTpeTQakco3hc9oxU-4" value="0..*" style="text;html=1;align=center;verticalAlign=middle;resizable=0;points=[];autosize=1;strokeColor=none;fillColor=none;" parent="1" vertex="1">
          <mxGeometry x="56" y="473" width="36" height="26" as="geometry" />
        </mxCell>
        <mxCell id="8L0eTpeTQakco3hc9oxU-5" value="Inventarios" style="ellipse;whiteSpace=wrap;html=1;fillColor=#f8cecc;strokeColor=#b85450;" parent="1" vertex="1">
          <mxGeometry x="-328" y="406" width="120" height="80" as="geometry" />
        </mxCell>
        <mxCell id="8L0eTpeTQakco3hc9oxU-6" value="&amp;lt;&amp;lt;needed of&amp;gt;&amp;gt;" style="text;html=1;align=center;verticalAlign=middle;resizable=0;points=[];autosize=1;strokeColor=none;fillColor=none;rotation=0;" parent="1" vertex="1">
          <mxGeometry x="-198" y="422" width="100" height="30" as="geometry" />
        </mxCell>
      </root>
    </mxGraphModel>
  </diagram>
  <diagram id="PuNJeE4REoV-GKbEdBdx" name="4.9 Notificaciones- ModeloDominioAcotado">
    <mxGraphModel dx="1707" dy="524" grid="0" gridSize="10" guides="1" tooltips="1" connect="1" arrows="1" fold="1" page="1" pageScale="1" pageWidth="827" pageHeight="1169" math="0" shadow="0">
      <root>
        <mxCell id="0" />
        <mxCell id="1" parent="0" />
        <mxCell id="B6AdnE_Fze19n94Y8mOn-2" style="edgeStyle=orthogonalEdgeStyle;rounded=0;orthogonalLoop=1;jettySize=auto;html=1;dashed=1;dashPattern=8 8;" edge="1" parent="1" source="TOJnEO3znUGkgz_4LogS-27" target="B6AdnE_Fze19n94Y8mOn-1">
          <mxGeometry relative="1" as="geometry" />
        </mxCell>
        <mxCell id="TOJnEO3znUGkgz_4LogS-27" value="" style="rounded=1;whiteSpace=wrap;html=1;" parent="1" vertex="1">
          <mxGeometry x="-558" y="52" width="426" height="322" as="geometry" />
        </mxCell>
        <mxCell id="TOJnEO3znUGkgz_4LogS-10" value="Notificacion" style="rounded=0;whiteSpace=wrap;html=1;fillColor=#ffff88;strokeColor=#36393d;" parent="1" vertex="1">
          <mxGeometry x="-530" y="112" width="120" height="60" as="geometry" />
        </mxCell>
        <mxCell id="LrA-6LalqM6SZtwuwelC-1" value="&lt;span style=&quot;font-size: 20px;&quot;&gt;&lt;b&gt;Notificaciones&lt;/b&gt;&lt;/span&gt;" style="text;html=1;align=center;verticalAlign=middle;resizable=0;points=[];autosize=1;strokeColor=none;fillColor=none;" parent="1" vertex="1">
          <mxGeometry x="-530" y="74" width="155" height="36" as="geometry" />
        </mxCell>
        <mxCell id="B6AdnE_Fze19n94Y8mOn-1" value="Clientes" style="ellipse;whiteSpace=wrap;html=1;fillColor=#e1d5e7;strokeColor=#9673a6;" vertex="1" parent="1">
          <mxGeometry x="-808" y="173" width="120" height="80" as="geometry" />
        </mxCell>
        <mxCell id="Sa2f6D0h05IIz2T2rutp-1" value="&amp;lt;&amp;lt;needed of&amp;gt;&amp;gt;" style="text;html=1;align=center;verticalAlign=middle;resizable=0;points=[];autosize=1;strokeColor=none;fillColor=none;" vertex="1" parent="1">
          <mxGeometry x="-673" y="179" width="100" height="30" as="geometry" />
        </mxCell>
        <mxCell id="Sa2f6D0h05IIz2T2rutp-6" style="edgeStyle=orthogonalEdgeStyle;rounded=0;orthogonalLoop=1;jettySize=auto;html=1;endArrow=none;endFill=0;" edge="1" parent="1" source="Sa2f6D0h05IIz2T2rutp-3" target="TOJnEO3znUGkgz_4LogS-10">
          <mxGeometry relative="1" as="geometry" />
        </mxCell>
        <mxCell id="Sa2f6D0h05IIz2T2rutp-3" value="ListaNotificacion&amp;nbsp;" style="rounded=0;whiteSpace=wrap;html=1;fillColor=#ffff88;strokeColor=#36393d;" vertex="1" parent="1">
          <mxGeometry x="-289" y="112" width="120" height="60" as="geometry" />
        </mxCell>
        <mxCell id="GnILF0sg3GvpQng4Hvg1-4" style="edgeStyle=orthogonalEdgeStyle;rounded=0;orthogonalLoop=1;jettySize=auto;html=1;endArrow=none;endFill=0;" edge="1" parent="1" source="GnILF0sg3GvpQng4Hvg1-3" target="Sa2f6D0h05IIz2T2rutp-3">
          <mxGeometry relative="1" as="geometry" />
        </mxCell>
        <mxCell id="GnILF0sg3GvpQng4Hvg1-3" value="Cliente" style="rounded=0;whiteSpace=wrap;html=1;fillColor=#e1d5e7;strokeColor=#9673a6;" vertex="1" parent="1">
          <mxGeometry x="-289" y="290" width="120" height="60" as="geometry" />
        </mxCell>
        <mxCell id="GnILF0sg3GvpQng4Hvg1-5" value="&amp;lt;-tiene" style="text;html=1;align=center;verticalAlign=middle;resizable=0;points=[];autosize=1;strokeColor=none;fillColor=none;" vertex="1" parent="1">
          <mxGeometry x="-382" y="141" width="55" height="26" as="geometry" />
        </mxCell>
        <mxCell id="NtbtaPKDy6E0ThoT8eKy-2" value="1..*" style="text;html=1;align=center;verticalAlign=middle;resizable=0;points=[];autosize=1;strokeColor=none;fillColor=none;" vertex="1" parent="1">
          <mxGeometry x="-410" y="143" width="36" height="26" as="geometry" />
        </mxCell>
        <mxCell id="NtbtaPKDy6E0ThoT8eKy-3" value="1" style="text;html=1;align=center;verticalAlign=middle;resizable=0;points=[];autosize=1;strokeColor=none;fillColor=none;" vertex="1" parent="1">
          <mxGeometry x="-316" y="112" width="25" height="26" as="geometry" />
        </mxCell>
        <mxCell id="NtbtaPKDy6E0ThoT8eKy-5" value="Notifica -&amp;gt;" style="text;html=1;align=center;verticalAlign=middle;resizable=0;points=[];autosize=1;strokeColor=none;fillColor=none;" vertex="1" parent="1">
          <mxGeometry x="-390.5" y="117" width="72" height="26" as="geometry" />
        </mxCell>
        <mxCell id="NtbtaPKDy6E0ThoT8eKy-13" value="&amp;lt;-Tiene" style="text;html=1;align=center;verticalAlign=middle;resizable=0;points=[];autosize=1;strokeColor=none;fillColor=none;rotation=-90;" vertex="1" parent="1">
          <mxGeometry x="-247" y="224" width="59" height="26" as="geometry" />
        </mxCell>
        <mxCell id="NtbtaPKDy6E0ThoT8eKy-14" value="0..*" style="text;html=1;align=center;verticalAlign=middle;resizable=0;points=[];autosize=1;strokeColor=none;fillColor=none;" vertex="1" parent="1">
          <mxGeometry x="-226" y="264" width="36" height="26" as="geometry" />
        </mxCell>
        <mxCell id="NtbtaPKDy6E0ThoT8eKy-15" value="Pertenece-&amp;gt;" style="text;html=1;align=center;verticalAlign=middle;resizable=0;points=[];autosize=1;strokeColor=none;fillColor=none;rotation=-90;" vertex="1" parent="1">
          <mxGeometry x="-289" y="230" width="84" height="26" as="geometry" />
        </mxCell>
        <mxCell id="NtbtaPKDy6E0ThoT8eKy-17" value="1" style="text;html=1;align=center;verticalAlign=middle;resizable=0;points=[];autosize=1;strokeColor=none;fillColor=none;" vertex="1" parent="1">
          <mxGeometry x="-255" y="174" width="25" height="26" as="geometry" />
        </mxCell>
      </root>
    </mxGraphModel>
  </diagram>
  <diagram id="HLzjZegPEWtQ-02gGn92" name="4.10 Clientes-ModeloDomonioAcotado">
    <mxGraphModel dx="1520" dy="1324" grid="0" gridSize="10" guides="1" tooltips="1" connect="1" arrows="1" fold="1" page="0" pageScale="1" pageWidth="827" pageHeight="1169" math="0" shadow="0">
      <root>
        <mxCell id="0" />
        <mxCell id="1" parent="0" />
        <mxCell id="VolCVtlRxH5uX4zE3CPD-1" value="" style="rounded=1;whiteSpace=wrap;html=1;" parent="1" vertex="1">
          <mxGeometry x="180" y="-590" width="500" height="270" as="geometry" />
        </mxCell>
        <mxCell id="VolCVtlRxH5uX4zE3CPD-2" value="&lt;span style=&quot;font-size: 24px;&quot;&gt;&lt;b&gt;Clientes&lt;/b&gt;&lt;/span&gt;" style="text;html=1;align=center;verticalAlign=middle;resizable=0;points=[];autosize=1;strokeColor=none;fillColor=none;" parent="1" vertex="1">
          <mxGeometry x="370" y="-584" width="120" height="40" as="geometry" />
        </mxCell>
        <mxCell id="TxPt0unhnIFpYj0xdiyK-1" value="Cliente" style="rounded=0;whiteSpace=wrap;html=1;fillColor=#e1d5e7;strokeColor=#9673a6;" parent="1" vertex="1">
          <mxGeometry x="510" y="-510" width="120" height="60" as="geometry" />
        </mxCell>
        <mxCell id="TxPt0unhnIFpYj0xdiyK-3" style="edgeStyle=orthogonalEdgeStyle;rounded=0;orthogonalLoop=1;jettySize=auto;html=1;endArrow=none;endFill=0;" parent="1" source="TxPt0unhnIFpYj0xdiyK-2" target="TxPt0unhnIFpYj0xdiyK-1" edge="1">
          <mxGeometry relative="1" as="geometry" />
        </mxCell>
        <mxCell id="TxPt0unhnIFpYj0xdiyK-2" value="TipoIdentificacion" style="rounded=0;whiteSpace=wrap;html=1;fillColor=#FFF2CC;strokeColor=#d6b656;" parent="1" vertex="1">
          <mxGeometry x="250" y="-510" width="120" height="60" as="geometry" />
        </mxCell>
        <mxCell id="TxPt0unhnIFpYj0xdiyK-4" value="&amp;lt;-Tiene" style="text;html=1;align=center;verticalAlign=middle;resizable=0;points=[];autosize=1;strokeColor=none;fillColor=none;" parent="1" vertex="1">
          <mxGeometry x="410" y="-480" width="60" height="30" as="geometry" />
        </mxCell>
        <mxCell id="TxPt0unhnIFpYj0xdiyK-5" value="1" style="text;html=1;align=center;verticalAlign=middle;resizable=0;points=[];autosize=1;strokeColor=none;fillColor=none;" parent="1" vertex="1">
          <mxGeometry x="370" y="-480" width="30" height="30" as="geometry" />
        </mxCell>
        <mxCell id="TxPt0unhnIFpYj0xdiyK-6" value="Pertenece-&amp;gt;" style="text;html=1;align=center;verticalAlign=middle;resizable=0;points=[];autosize=1;strokeColor=none;fillColor=none;" parent="1" vertex="1">
          <mxGeometry x="395" y="-510" width="90" height="30" as="geometry" />
        </mxCell>
        <mxCell id="uymceXSVR63VhMUhKiOG-1" value="1..*" style="text;html=1;align=center;verticalAlign=middle;resizable=0;points=[];autosize=1;strokeColor=none;fillColor=none;" parent="1" vertex="1">
          <mxGeometry x="470" y="-510" width="40" height="30" as="geometry" />
        </mxCell>
        <mxCell id="5zYFywlKmZmRqLjsRgul-1" value="InformacionBase" style="ellipse;whiteSpace=wrap;html=1;fillColor=#FFF2CC;strokeColor=#36393d;" parent="1" vertex="1">
          <mxGeometry x="-70" y="-510" width="120" height="80" as="geometry" />
        </mxCell>
        <mxCell id="FVlgd2-lF1hKBXP_Xo47-1" style="edgeStyle=orthogonalEdgeStyle;rounded=0;orthogonalLoop=1;jettySize=auto;html=1;dashed=1;dashPattern=8 8;endArrow=open;endFill=0;" parent="1" target="5zYFywlKmZmRqLjsRgul-1" edge="1">
          <mxGeometry relative="1" as="geometry">
            <mxPoint y="-104" as="targetPoint" />
            <mxPoint x="180" y="-470" as="sourcePoint" />
            <Array as="points">
              <mxPoint x="150" y="-470" />
              <mxPoint x="150" y="-470" />
            </Array>
          </mxGeometry>
        </mxCell>
        <mxCell id="FVlgd2-lF1hKBXP_Xo47-2" value="&amp;lt;&amp;lt;needed of&amp;gt;&amp;gt;" style="text;html=1;align=center;verticalAlign=middle;resizable=0;points=[];autosize=1;strokeColor=none;fillColor=none;" parent="1" vertex="1">
          <mxGeometry x="70" y="-500" width="100" height="30" as="geometry" />
        </mxCell>
        <mxCell id="K1kec8Ng8ONpgMuqFA1t-2" style="edgeStyle=orthogonalEdgeStyle;rounded=0;orthogonalLoop=1;jettySize=auto;html=1;endArrow=none;endFill=0;" parent="1" source="K1kec8Ng8ONpgMuqFA1t-1" target="TxPt0unhnIFpYj0xdiyK-1" edge="1">
          <mxGeometry relative="1" as="geometry" />
        </mxCell>
        <mxCell id="K1kec8Ng8ONpgMuqFA1t-1" value="Genero" style="rounded=0;whiteSpace=wrap;html=1;fillColor=#e1d5e7;strokeColor=#9673a6;" parent="1" vertex="1">
          <mxGeometry x="258" y="-401" width="120" height="60" as="geometry" />
        </mxCell>
        <mxCell id="K1kec8Ng8ONpgMuqFA1t-3" value="&amp;lt;-Tiene" style="text;html=1;align=center;verticalAlign=middle;resizable=0;points=[];autosize=1;strokeColor=none;fillColor=none;" parent="1" vertex="1">
          <mxGeometry x="447" y="-373" width="60" height="30" as="geometry" />
        </mxCell>
        <mxCell id="K1kec8Ng8ONpgMuqFA1t-4" value="Pertenece-&amp;gt;" style="text;html=1;align=center;verticalAlign=middle;resizable=0;points=[];autosize=1;strokeColor=none;fillColor=none;" parent="1" vertex="1">
          <mxGeometry x="432" y="-403" width="90" height="30" as="geometry" />
        </mxCell>
        <mxCell id="K1kec8Ng8ONpgMuqFA1t-5" value="1" style="text;html=1;align=center;verticalAlign=middle;resizable=0;points=[];autosize=1;strokeColor=none;fillColor=none;" parent="1" vertex="1">
          <mxGeometry x="380" y="-368" width="30" height="30" as="geometry" />
        </mxCell>
        <mxCell id="K1kec8Ng8ONpgMuqFA1t-6" value="1..*" style="text;html=1;align=center;verticalAlign=middle;resizable=0;points=[];autosize=1;strokeColor=none;fillColor=none;" parent="1" vertex="1">
          <mxGeometry x="528" y="-447" width="40" height="30" as="geometry" />
        </mxCell>
      </root>
    </mxGraphModel>
  </diagram>
  <diagram id="Q7Ttmecd0rGlFCf8dMsX" name="4.11 InformacionBase-ModeloDomino">
    <mxGraphModel dx="880" dy="524" grid="0" gridSize="10" guides="1" tooltips="1" connect="1" arrows="1" fold="1" page="0" pageScale="1" pageWidth="827" pageHeight="1169" math="0" shadow="0">
      <root>
        <mxCell id="0" />
        <mxCell id="1" parent="0" />
        <mxCell id="OCm9TzpU7amNqRRL_-N5-1" value="" style="rounded=1;whiteSpace=wrap;html=1;fillColor=#d5e8d4;strokeColor=#82b366;" parent="1" vertex="1">
          <mxGeometry x="350" y="140" width="230" height="160" as="geometry" />
        </mxCell>
        <mxCell id="OCm9TzpU7amNqRRL_-N5-2" value="&lt;b&gt;&lt;font style=&quot;font-size: 20px;&quot;&gt;InformacionBase&lt;/font&gt;&lt;/b&gt;" style="text;html=1;align=center;verticalAlign=middle;resizable=0;points=[];autosize=1;strokeColor=none;fillColor=none;" parent="1" vertex="1">
          <mxGeometry x="370" y="150" width="190" height="40" as="geometry" />
        </mxCell>
        <mxCell id="OCm9TzpU7amNqRRL_-N5-3" value="TipoIdentificacion" style="rounded=0;whiteSpace=wrap;html=1;fillColor=#fff2cc;strokeColor=#d6b656;" parent="1" vertex="1">
          <mxGeometry x="405" y="200" width="120" height="60" as="geometry" />
        </mxCell>
      </root>
    </mxGraphModel>
  </diagram>
  <diagram id="Tzqavun8EJMFop4G4we7" name="4.12 CentroEventos-ModeloDominio">
    <mxGraphModel dx="2532" dy="558" grid="0" gridSize="10" guides="1" tooltips="1" connect="1" arrows="1" fold="1" page="0" pageScale="1" pageWidth="827" pageHeight="1169" math="0" shadow="0">
      <root>
        <mxCell id="0" />
        <mxCell id="1" parent="0" />
        <mxCell id="r56UqTREgObVolq_RUTC-8" style="edgeStyle=orthogonalEdgeStyle;rounded=0;orthogonalLoop=1;jettySize=auto;html=1;dashed=1;dashPattern=8 8;" parent="1" source="1XqeUYukl8_SkIBZolLr-1" target="r56UqTREgObVolq_RUTC-2" edge="1">
          <mxGeometry relative="1" as="geometry" />
        </mxCell>
        <mxCell id="1XqeUYukl8_SkIBZolLr-1" value="" style="rounded=1;whiteSpace=wrap;html=1;" parent="1" vertex="1">
          <mxGeometry x="-655" y="40" width="215" height="280" as="geometry" />
        </mxCell>
        <mxCell id="r56UqTREgObVolq_RUTC-3" style="edgeStyle=orthogonalEdgeStyle;rounded=0;orthogonalLoop=1;jettySize=auto;html=1;endArrow=none;endFill=0;" parent="1" source="1XqeUYukl8_SkIBZolLr-2" target="r56UqTREgObVolq_RUTC-1" edge="1">
          <mxGeometry relative="1" as="geometry" />
        </mxCell>
        <mxCell id="1XqeUYukl8_SkIBZolLr-2" value="Eventos" style="rounded=0;whiteSpace=wrap;html=1;fillColor=#f5f5f5;strokeColor=#666666;fontColor=#333333;" parent="1" vertex="1">
          <mxGeometry x="-613" y="100" width="120" height="60" as="geometry" />
        </mxCell>
        <mxCell id="1XqeUYukl8_SkIBZolLr-3" value="&lt;span style=&quot;font-size: 20px;&quot;&gt;&lt;b&gt;CentroEventos&lt;/b&gt;&lt;/span&gt;" style="text;html=1;align=center;verticalAlign=middle;resizable=0;points=[];autosize=1;strokeColor=none;fillColor=none;" parent="1" vertex="1">
          <mxGeometry x="-634" y="60" width="170" height="40" as="geometry" />
        </mxCell>
        <mxCell id="r56UqTREgObVolq_RUTC-1" value="Notificacion" style="rounded=0;whiteSpace=wrap;html=1;fillColor=#ffff88;strokeColor=#36393d;" parent="1" vertex="1">
          <mxGeometry x="-613" y="250" width="120" height="60" as="geometry" />
        </mxCell>
        <mxCell id="r56UqTREgObVolq_RUTC-2" value="Notificaciones" style="ellipse;whiteSpace=wrap;html=1;fillColor=#ffff88;strokeColor=#36393d;" parent="1" vertex="1">
          <mxGeometry x="-920" y="140" width="120" height="80" as="geometry" />
        </mxCell>
        <mxCell id="r56UqTREgObVolq_RUTC-4" value="Tiene-&amp;gt;" style="text;html=1;align=center;verticalAlign=middle;resizable=0;points=[];autosize=1;strokeColor=none;fillColor=none;rotation=90;" parent="1" vertex="1">
          <mxGeometry x="-560" y="180" width="60" height="30" as="geometry" />
        </mxCell>
        <mxCell id="r56UqTREgObVolq_RUTC-5" value="1" style="text;html=1;align=center;verticalAlign=middle;resizable=0;points=[];autosize=1;strokeColor=none;fillColor=none;" parent="1" vertex="1">
          <mxGeometry x="-550" y="220" width="30" height="30" as="geometry" />
        </mxCell>
        <mxCell id="r56UqTREgObVolq_RUTC-6" value="Notifica -&amp;gt;" style="text;html=1;align=center;verticalAlign=middle;resizable=0;points=[];autosize=1;strokeColor=none;fillColor=none;rotation=-90;" parent="1" vertex="1">
          <mxGeometry x="-613" y="190" width="80" height="30" as="geometry" />
        </mxCell>
        <mxCell id="r56UqTREgObVolq_RUTC-7" value="1" style="text;html=1;align=center;verticalAlign=middle;resizable=0;points=[];autosize=1;strokeColor=none;fillColor=none;" parent="1" vertex="1">
          <mxGeometry x="-580" y="160" width="30" height="30" as="geometry" />
        </mxCell>
        <mxCell id="BBrUBpii5vJ5Q568Ooqp-1" value="&amp;lt;&amp;lt;needed of&amp;gt;&amp;gt;" style="text;html=1;align=center;verticalAlign=middle;resizable=0;points=[];autosize=1;strokeColor=none;fillColor=none;" parent="1" vertex="1">
          <mxGeometry x="-770" y="150" width="100" height="30" as="geometry" />
        </mxCell>
      </root>
    </mxGraphModel>
  </diagram>
  <diagram id="IReG1y8nlctsLxMwKq8-" name="4.13 Pagos- ModeloDominio">
    <mxGraphModel dx="2132" dy="558" grid="0" gridSize="10" guides="1" tooltips="1" connect="1" arrows="1" fold="1" page="0" pageScale="1" pageWidth="827" pageHeight="1169" math="0" shadow="0">
      <root>
        <mxCell id="0" />
        <mxCell id="1" parent="0" />
        <mxCell id="AfE37M0vraiN8jizu-2R-1" value="" style="rounded=1;whiteSpace=wrap;html=1;" parent="1" vertex="1">
          <mxGeometry x="-655" y="40" width="215" height="184" as="geometry" />
        </mxCell>
        <mxCell id="AfE37M0vraiN8jizu-2R-2" value="Pago" style="rounded=0;whiteSpace=wrap;html=1;fillColor=#e6d0de;strokeColor=#996185;gradientColor=#d5739d;" parent="1" vertex="1">
          <mxGeometry x="-613" y="100" width="120" height="60" as="geometry" />
        </mxCell>
        <mxCell id="AfE37M0vraiN8jizu-2R-3" value="&lt;span style=&quot;font-size: 20px;&quot;&gt;&lt;b&gt;Pagos&lt;/b&gt;&lt;/span&gt;" style="text;html=1;align=center;verticalAlign=middle;resizable=0;points=[];autosize=1;strokeColor=none;fillColor=none;" parent="1" vertex="1">
          <mxGeometry x="-589" y="60" width="80" height="40" as="geometry" />
        </mxCell>
      </root>
    </mxGraphModel>
  </diagram>
</mxfile>
